<?xml version="1.0" encoding="utf-8" standalone="yes"?>
<!DOCTYPE svg PUBLIC "-//W3C//DTD SVG 1.1//EN" "http://www.w3.org/Graphics/SVG/1.1/DTD/svg11.dtd">
<!-- Generator: Adobe Illustrator 18.0.0, SVG Export Plug-In . SVG Version: 6.00 Build 0)  --><svg xmlns="http://www.w3.org/2000/svg" xmlns:xlink="http://www.w3.org/1999/xlink" id="Layer_3" xml:space="preserve" version="1.1" x="0px" enable-background="new 0 0 1920 1080" y="0px" width="350px" height="110px" cursor="default" viewBox="0 0 350 110" style="zoom: 1;"><g><path fill="#CC0000" d="M17.899994,89.599998 l6.9,13.4 h-7.3 l-5.9,-12.2 h-0.9 V103 H4 V56.800003 h9.7 c5.9,0 8.9,3.3 8.9,9.7 v14.5 C22.600006,85.099998 21,88 17.899994,89.599998  z M10.700012,63.400002 v21.1 h1.5 c0.9,0 1.6,-0.1 1.9,-0.2 c1.2,-0.5 1.8,-1.5 1.8,-2.9 V66.5 c0,-2.1 -1,-3.2 -2.9,-3.2 H10.700012  z "></path><path fill="#CC0000" d="M28.600006,56.800003 h17.3 v6.6 h-10.6 v20.8 h9.1 v6.6 h-9.1 v5.7 h10.6 v6.6 h-17.3 V56.800003  z "></path><path fill="#CC0000" d="M68.099976,56.800003 v6.6 h-6.2 V103 h-6.7 V63.400002 h-6.2 v-6.6 H68.099976  z "></path><path fill="#CC0000" d="M86.200012,89.599998 l6.9,13.4 h-7.3 l-5.9,-12.2 H79 V103 h-6.7 V56.800003 h9.7 c5.9,0 8.9,3.3 8.9,9.7 v14.5 C90.900024,85.099998 89.299988,88 86.200012,89.599998  z M79,63.400002 v21 h1.5 c0.9,0 1.6,-0.1 1.9,-0.2 c1.2,-0.5 1.8,-1.5 1.8,-2.9 V66.599998 c0,-2.1 -1,-3.2 -2.9,-3.2 H79  z "></path><path fill="#CC0000" d="M114.5,94.099998 c0,6.5 -3.2,9.7 -9.6,9.7 c-6.4,0 -9.6,-3.2 -9.6,-9.7 V65.800003 c0,-6.5 3.2,-9.7 9.6,-9.7 c6.4,0 9.6,3.2 9.6,9.7 V94.099998  z M107.799988,65.800003 c0,-2.1 -1,-3.1 -2.9,-3.1 h0 c-1.9,0 -2.9,1 -2.9,3.1 v28.3 c0,2.1 1,3.1 2.9,3.1 c1.9,0 2.9,-1 2.9,-3.1 V65.800003  z "></path></g><g><path fill="#CC0000" d="M112.900024,40.900002 c1.5,0.4 1.3,-2.1 2.4,-2.6 c0.1,0 0.2,0 0.3,-0.1 c1.3,-1.4 2.5,-2.9 3.8,-4.4 c0.6,-0.9 1.2,-1.6 2,-2.2 c0.9,-1 1.8,-1.8 2.8,-2.6 c3.1,-1.8 6.2,-3.5 9.4,-5.3 c1.4,-0.5 2.8,-1 4.2,-1.5 c0.5,-0.3 1.1,-0.6 1.7,-0.9 c2,-0.5 4.1,-1.1 6.3,-1.6 c0.6,-0.3 1.3,-0.5 2,-0.7 c0.7,0.1 1.3,-0.1 1.8,-0.6 c7.7,0.8 15.4,-0.5 23.1,0.3 c3.9,0.9 7.6,2.5 11.1,4.7 c1.2,1.6 2.5,3.2 3.7,4.7 c-0.1,0.4 1.1,2.6 0.5,2.5 c0.2,0.6 0.4,1.2 0.5,1.7 c-0.8,-0.5 -1.3,-1.3 -1.4,-2.4 c0.2,1.4 0.5,2.8 0.8,4.2 c0.2,0 0.3,-0.1 0.4,-0.3 c0.4,3.2 0.1,6 -1,8.7 c-0.2,0.4 -0.3,0.8 -0.5,1.2 c-0.7,1.7 -1.6,3.4 -2.6,5 c-0.3,0.2 -0.3,0.6 -0.2,1 c-0.3,-0.2 -0.6,-0.1 -0.8,0.2 c-0.1,0.2 -0.2,0.4 -0.2,0.6 c-3.9,3.1 -7.6,8.5 -12.9,9.9 c-1.3,0.6 -2.5,1.5 -3.6,2.5 c-0.2,-0.1 -0.3,-0.2 -0.4,-0.4 c-7.4,3.8 -14.8,4.7 -21.1,6.6 c0,0.5 0,0.9 0,1.4 c-0.5,0.6 -1,1.3 -1.3,2.1 c0,0.3 0,0.6 0.1,0.9 c-0.5,1.2 -1,2.4 -1.6,3.6 c0,0.4 0,0.7 -0.1,1 c-0.3,0.5 -0.6,1.1 -0.9,1.7 c-0.1,0.4 -0.2,0.7 -0.2,1.1 c-0.3,1.1 -0.6,2.2 -0.7,3.4 c-0.5,1 -0.9,2.2 -1.1,3.5 c-0.7,3.8 -2.2,6.9 -4.4,9.4 c-0.2,-0.3 -0.3,-0.6 -0.3,-1 c-0.2,1 -1.9,3.7 -3,3 c-0.2,0.3 -0.3,0.7 -0.3,1.1 c0.1,0 1.1,-0.4 1.1,-0.6 c-0.6,0.2 -1.1,0.4 -1.6,0.7 c-0.6,-0.4 -1,-0.3 -1.4,0.1 c-0.6,-0.6 -1.3,-0.8 -1.9,-0.7 c-0.2,-0.3 -0.3,-0.6 -0.4,-1 c-0.3,0 -0.6,-0.1 -0.9,-0.3 c-0.1,0.3 -0.2,0.6 -0.4,0.8 c-0.1,-0.3 -0.3,-0.5 -0.6,-0.6 c0.1,-0.3 0,-0.7 -0.1,-1.2 c-0.4,-0.9 -1,-1.5 -1.8,-1.9 c0.1,-0.5 0.1,-1 0,-1.5 c0.8,-1.6 1.2,-3.4 1.2,-5.5 l0.3,0 c0.5,-3.5 1.1,-7 1.7,-10.6 c0.2,-0.2 0.3,-0.3 0.3,-0.6 c0.7,-3.8 1.4,-7.6 2,-11.6 c1.2,-4.4 2.4,-8.8 3.6,-13.4 c-0.1,-0.4 -0.1,-0.7 -0.1,-1.1 c0.4,-0.5 0.6,-1.1 0.5,-1.9 c1.2,-2.8 2.1,-5.9 2.9,-9.1 c-5.6,1.1 -10.4,2.4 -14.9,5.6 c-1.4,1.7 -2.6,3.5 -3.6,5.5 c-0.5,0.2 -0.9,0.6 -1.1,1.1 c-0.3,0.1 -0.6,-0.1 -0.8,-0.5 c-0.9,-0.5 -1.7,-1.1 -2.5,-1.8 c-0.5,-1 -1.1,-1.9 -1.8,-2.9 c0.3,-2.3 1.1,-4.2 2.4,-5.8 C113,41.5 112.900024,41.200001 112.900024,40.900002 C113.299988,41 112.900024,41.200001 112.900024,40.900002  z M152.599976,49 c5,-2.4 8.6,-6.8 13.4,-9.6 c0.1,-0.8 0.4,-1.5 1,-2.1 c0.6,-0.2 1.2,-0.3 1.8,-0.4 c-0.2,-1.5 -0.6,-3.1 -1.2,-4.9 c-1.4,0.5 -2.8,0.4 -4.3,-0.2 c-0.9,2.6 -5.5,0.6 -7.6,1.4 c-1.5,2.6 -1.7,5.5 -3.1,8.2 c0.1,0.3 0.3,0.7 0.4,1 c-1.7,2.3 -2.8,4.9 -3.3,7.7 C151.200012,50.599998 152.099976,50.199997 152.599976,49 C153.900024,48.299999 152.5,49.400002 152.599976,49  z M186.700012,30 c0.1,-0.4 -0.1,-0.8 -0.4,-1.2 c0,0.2 0,0.2 -0.2,0.1 C186.200012,29.400002 186.400024,29.799999 186.700012,30 C186.799988,30 186.400024,29.799999 186.700012,30  z "></path><path fill="#CC0000" d="M236.900024,87.099998 c-0.3,-0.1 -0.6,-0.3 -0.8,-0.4 c-1.5,0.9 -3.3,1.7 -5.3,2.5 c0,0.3 -0.1,0.5 -0.3,0.7 c-5.6,1.2 -11.2,2.7 -16.7,4.6 c-4.5,1.7 -9.9,2 -14.5,3.6 c-0.2,0.1 -0.5,0.3 -0.7,0.4 c-0.5,0 -1,0.1 -1.5,0.1 c-0.7,0.3 -1.4,0.5 -2.1,0.6 c-0.2,0.1 -0.4,0.4 -0.7,0.9 c-1.1,0.1 -2.1,0.4 -2.9,0.9 c-3.2,0.7 -6.5,1.2 -9.7,1.6 c-1.3,-0.1 -2.6,-0.4 -3.8,-0.8 c-2.9,0 -4.7,-1.7 -7.1,-2.3 c-0.5,-0.7 -0.8,-1.5 -0.9,-2.4 c-0.1,-0.6 -0.4,-0.8 -0.9,-0.6 c-0.8,-1.6 -1.4,-3.2 -1.9,-5 c0.1,-0.4 0.3,-0.7 0.6,-1 c-0.3,-0.7 -0.3,-1.4 -0.3,-2.2 c-0.7,-2.2 -0.4,-4.7 0.9,-7.3 c0.4,-1.2 1,-2.3 1.8,-3.2 c2.4,-4.4 5,-8.7 7.5,-12.7 c-0.9,-0.7 0.5,-1.5 0.3,-2.3 c0.4,0 0.8,-0.1 1.2,-0.4 c0.3,-0.6 0.6,-1.1 0.9,-1.7 c1,-2 2,-4 2.9,-6 c0.7,-1.8 1.5,-3.5 2.2,-5.3 c0.5,-0.9 0.7,-1.9 0.6,-3 c-0.3,-0.1 -0.6,-0.3 -0.8,-0.6 c-0.1,0.2 -0.3,0.5 -0.3,0.8 c-0.7,-0.5 -1.4,-0.9 -2.1,-1.2 c-0.1,-0.5 -0.1,-1.2 0,-2 c0.9,-1 1.6,-2.1 2.2,-3.3 c4.6,-2.5 9,-4.7 13.2,-7.2 c1.6,0.4 2.9,-1.6 4.3,-1.6 c0.2,-0.1 0.3,-0.2 0.3,-0.5 c0.1,0.2 0.3,0.3 0.5,0.4 c2.8,-1.2 5.5,-2.3 8.2,-3.4 c0.2,0 0.4,0.1 0.6,0.3 c1.3,-0.5 2.6,-1 3.9,-1.7 c1.1,0 2.3,-0.1 3.5,-0.3 c0.3,-0.2 0.5,-0.4 0.6,-0.9 c4.7,-0.7 10.8,-0.3 17.1,-0.8 c0.4,-0.1 0.9,-0.2 1.3,-0.3 c1.9,0.5 3.9,0.9 5.9,1.2 c-0.2,0.5 -0.3,0.9 -0.3,1.3 c-0.5,0.2 -1,0.1 -1.4,-0.1 c-0.3,0.5 -0.7,0.9 -1.1,1.2 c0.2,0.2 0.3,0.5 0.3,0.7 c0.5,-0.4 1,-0.4 1.4,-0.1 c-0.6,0.5 -1.2,0.9 -1.8,1.4 c-0.2,0 -0.3,-0.2 -0.1,-0.6 c-0.5,0.5 -1,0.7 -1.5,0.6 l-0.3,1 c0.2,0.2 0.4,0.3 0.6,0.4 c-0.7,0.8 -1.4,1.1 -2.2,0.9 c-0.2,0.3 -0.4,0.6 -0.6,1 c-0.9,0.1 -1.8,0.1 -2.6,-0.1 c0.1,0.4 0.1,0.7 -0.2,1.1 c-0.2,-0.4 -0.3,-0.6 -0.4,-0.6 c-1.2,1.3 -2.5,2.1 -3.8,2.4 c-0.4,0 -0.8,0.1 -1.3,0.1 c-1.1,0.6 -2.1,1.1 -3.1,1.5 c-1.8,0.4 -3.4,1.2 -4.8,2.5 c-3.4,1.8 -6.8,3.4 -10.5,4.8 c-0.8,0.2 -1.6,0.5 -2.4,1.1 c-0.6,1.2 -0.7,2.6 -0.5,4.2 c-0.2,0.1 -0.3,0.1 -0.5,0.2 c-0.5,2.5 -1.2,4.8 -2.1,7.1 c1.5,0.4 2.9,0.3 4.2,-0.3 c0.3,0.1 0.6,0.2 0.9,0.3 c4.1,-1.2 8,-1.5 11.5,-2.4 c0.4,0.1 0.7,0.1 1.1,0.2 c1,0.1 3.7,0.3 4.1,-1.2 c1.6,0.1 3.2,0.1 4.8,0.3 c0,0.4 -0.1,0.6 -0.4,0.5 c0.3,0.6 0.7,0.8 1,0.7 c0,0.4 0,0.8 0,1.1 c-0.2,0 -0.4,-0.1 -0.6,-0.2 c0.2,0.7 0.4,1.4 0.6,2 c-0.5,-0.2 -0.9,-0.2 -1.2,0.3 c0,0.3 0.1,0.6 0.1,1 c-0.5,0 -0.7,0.4 -0.6,1.3 c-0.6,0.2 -0.9,0.8 -1.1,1.8 c-1,0.5 -2,1.1 -3,1.7 c-0.1,0.3 -0.2,0.5 -0.3,0.9 c-0.5,-0.4 -0.8,-0.3 -0.8,0.3 c-0.4,-0.3 -0.6,-0.2 -0.7,0.4 c-0.2,-0.1 -0.4,-0.1 -0.6,-0.2 c-0.5,1 -1.4,1.3 -2.6,1 c-0.4,1.4 -2.4,-0.3 -2.9,1.2 c-1,0.1 -2.1,0.2 -3.2,0.3 c-2.5,0.6 -5.1,1.1 -7.8,1.6 c-0.8,-0.2 -1.5,0 -2,0.5 c-2.1,-0.2 -4.1,0 -6.2,0.4 c-2.5,4 -5.2,8.1 -8.1,12.4 c2.3,-0.4 4.5,-1 6.7,-1.8 c1.2,0 2.3,-0.4 3.2,-1.2 c0.2,0 0.3,0.1 0.4,0.2 c2.3,-0.8 4.6,-1.4 7,-1.7 c0.6,-0.3 1.3,-0.6 2,-0.8 c0.3,0.1 0.6,0.1 0.9,0.2 c1.2,-0.2 2.2,-0.7 3.5,-0.6 c0.5,-0.1 8.6,-1.9 9.1,-0.4 c2.7,0.3 6.4,0.2 9.8,2.4 c0.3,0.4 0.4,0.6 0.1,0.7 c1,1 2.1,1.8 3.3,2.5 c0.1,0.3 0.4,0.7 0.6,1 c0.4,0.1 0.8,0.3 1.2,0.5 C237.900024,85.400002 237.5,86.300003 236.900024,87.099998 C236.599976,87.099998 236.900024,86.400002 236.900024,87.099998  z M207.900024,45.099998 c-0.3,-0.2 -0.4,-0.1 -0.4,0.4 C207.700012,45.5 207.799988,45.400002 207.900024,45.099998  z "></path><path fill="#CC0000" d="M264.400024,25.799999 c0.3,-0.3 0.5,-0.3 0.9,-0.1 c0.1,-0.2 0.3,-0.4 0.4,-0.6 c0.3,-0.1 0.5,0 0.6,0.3 c0.6,0.1 0.1,-0.5 0.8,0.3 c0.1,-0.4 0.3,-0.6 0.6,-0.6 c0.1,0.2 0.2,0.4 0.1,0.7 c1.5,1.4 1.6,3 0.5,4.6 c0.1,0.2 0.2,0.4 0.2,0.7 c-0.3,2.7 -1.3,5.1 -2.8,7.3 c0.1,0.2 0.1,0.4 0,0.7 c-0.3,0.7 -0.5,1.4 -0.6,2.1 c-0.5,0.9 -1,1.8 -1.3,2.7 c-0.5,0.9 -1,1.8 -1.4,2.8 c-0.1,0.2 -0.1,0.5 -0.1,0.7 c-0.8,1.4 -1.4,2.9 -1.7,4.5 c4.5,-3.4 8.6,-7.1 12.5,-11.1 c0.1,0 0.2,0.1 0.3,0.1 c1.3,-2 2.9,-3.9 4.4,-5.7 c0.9,-0.6 1.8,-1.2 2.8,-1.7 c2.4,0.6 4.8,1.1 7.3,1.5 c0.3,-0.1 0.5,-0.3 0.7,-0.5 c0.1,0 0.1,0.3 0.2,0.8 c0.6,0.2 1.2,0.4 1.9,0.5 c0,0.2 0,0.4 0,0.6 c1.1,-0.1 1.5,1 2.5,1.1 c0.1,0.6 0.5,1.1 1,1.3 c0.5,1 0.9,2.2 1,3.3 c0,0.2 0,0.3 -0.3,0.3 c-0.1,1.4 0,2.7 0.3,4.1 c-0.2,0 -0.5,-0.1 -0.7,-0.1 c-0.5,1.4 -0.7,2.9 -0.8,4.4 c1.5,-1.6 3,-3.3 4.3,-5 c-0.1,-0.2 -0.2,-0.4 -0.4,-0.5 c0.2,-0.6 0.5,-0.7 0.9,-0.4 c1.5,-1.6 2.9,-3.2 4.3,-4.9 c0.6,-0.3 1,-0.7 1.1,-1.4 c0.9,-0.3 1.5,-0.9 1.9,-2 c4.4,-4.4 9,-8.8 13.6,-13.3 c-0.1,0 -0.1,-0.2 0,-0.5 c3.8,-3.6 7.8,-7.1 12,-10.5 c0.2,0 0.3,0 0.5,0.1 c1.5,-1.4 3.1,-2.7 4.9,-3.8 c-0.8,1.1 -1.6,2.1 -2.5,3.1 c1,-0.3 1.7,-0.9 2.2,-1.8 c0.8,-0.4 1.5,-0.8 2.3,-1.1 c1.7,-1.3 3.5,-2.5 5.3,-3.7 c0.1,0 0.1,-0.1 0.2,-0.2 c1,-0.7 2.2,-1.2 3.3,-1.6 c0.1,1.3 -0.4,2.3 -1.6,3.1 c0.2,0.3 0.3,0.6 0.5,0.9 c-1.5,0.1 -2.1,1 -1.9,2.5 c-0.3,0.7 -0.7,1.1 -1.2,1.2 c1.1,0.1 2,0.4 2.9,1.1 c0.4,-0.1 0.9,-0.2 1.4,-0.3 c0.1,0.2 0.2,0.5 0.3,0.6 c-0.5,0.6 -1.1,1.2 -1.6,1.8 c-0.8,2 -1.8,3.9 -2.9,5.8 c-0.3,0.2 -0.6,0.4 -0.9,0.6 c-1,1.6 -2.2,3.1 -3.6,4.4 c-1,2.2 -3.4,3.6 -4.1,5.8 c-1.1,1 -2.2,2.1 -3.2,3.3 c0.2,0.1 0.3,0.3 0.2,0.5 c-0.5,0.3 -1,0.6 -1.4,1 c-1,2.4 -4.1,4.5 -5.5,6.8 c-0.7,0.1 -1.2,0.6 -1.5,1.4 c-0.2,0 -0.5,0.2 -0.7,0.3 c-6.1,8.1 -13.4,15 -18.7,23.1 c-1.9,2.1 -3.6,4.3 -5.3,6.5 c0.5,1.2 0,0.6 -0.5,0.6 c-1.2,2 -2.7,3.8 -4.5,5.5 c-1.3,2.7 -3.4,4.6 -6.1,5.9 c-2,0.4 -3.9,0.1 -5.4,-1.2 c-0.7,-0.1 -1.4,-0.1 -2.1,0 c-1.2,-1 -2.5,-1.9 -3.9,-2.7 c-1.8,-0.2 -2.9,-1.1 -3.3,-2.6 c-0.2,0.2 -0.5,0.4 -0.7,0.4 c0,-0.4 0,-0.8 0.1,-1.2 c-0.2,-0.2 -0.4,-0.4 -0.7,-0.5 c0,-2.1 0.1,-4.2 0.2,-6.3 c0.6,-2.5 1.1,-4.9 1.7,-7.4 c-1.2,0.7 -2.1,1.6 -2.9,2.6 c-1.4,0.8 -2.6,1.9 -3.5,3.3 c-0.3,0.1 -0.6,0.3 -0.9,0.4 c-4.7,4.9 -10,10.1 -15.9,15.7 c-1.4,1.5 -2.8,2.9 -4.4,4.3 c-0.8,0.8 -1.7,1.5 -2.5,2.2 c0,0.2 0,0.4 -0.1,0.5 c-0.3,0.2 -0.6,0.2 -0.9,0.2 c-2.9,2.5 -7.5,5.2 -9.1,3.3 c0.2,-0.3 0.4,-0.6 0.6,-0.9 c-0.2,0.2 -0.5,0.4 -0.7,0.6 c0,-0.1 0.1,-0.2 0,-0.3 c0,-0.6 0.3,-1 0.9,-1.2 c-0.2,-1.3 -0.8,-1.7 -2,-1.2 c-0.4,-0.5 -0.8,-0.8 -1.3,-1 c0.1,-0.7 0.1,-1.4 0,-2 c-0.1,0.3 -0.2,0.7 -0.3,1 c-0.1,-1 -0.3,-1.9 -0.5,-2.7 c-0.2,-1.5 0.1,-3.2 0.9,-5 c-0.1,-0.3 -0.2,-0.5 -0.3,-0.8 c0.3,-0.9 0.7,-1.7 1.1,-2.5 c0.2,-0.9 -0.1,-1.6 0.4,-2.5 c1.3,-3.6 2.7,-7 4.2,-10.2 c0.1,-0.6 0.3,-1.2 0.6,-1.7 c1.5,-3.7 3.1,-7.2 4.8,-10.4 c0.2,-0.5 0.2,-1 0.2,-1.6 c2.7,-2.9 2.3,-7.8 3.7,-11.2 c1,-2.6 2,-5.2 3,-7.8 c-0.3,-0.1 -0.4,-0.2 -0.5,-0.5 c1,-0.7 1.5,-1.8 1.6,-3 c0.9,-2 1.8,-3.9 2.9,-5.8 c-0.2,-0.2 -0.2,-0.5 -0.2,-0.7 c0.5,-0.8 0.9,-1.7 1.2,-2.6 c0,-0.2 -0.1,-0.3 -0.3,-0.4 c0,-0.2 0.3,-0.3 0.8,-0.2 c0.3,-0.6 0.5,-1.3 0.6,-1.9 c0.9,0 1.9,-0.1 2.8,-0.3 c-0.2,0.5 -0.6,0.9 -1.2,1 c0.3,0.2 0.5,0.4 0.8,0.7 c0.4,-0.4 0.9,-0.5 1.4,-0.4 c-0.2,0.2 -0.5,0.4 -0.8,0.6 c0.1,0.2 0,0.4 -0.1,0.6 c0.3,0 0.6,-0.1 0.9,-0.3 c0.4,0.4 0.9,0.6 1.4,0.6 c0,0.3 0.1,0.7 0.1,1 c0.4,0.1 0.8,0 1.2,-0.2 c0.4,0.1 0.7,0.3 1,0.6 c-0.6,1 0,0 0.7,0.5 c0.1,0.2 0.2,0.5 0.2,0.7 c0.2,-0.1 0.3,-0.2 0.5,-0.4 c0.3,0.3 0.7,0.5 1.1,0.6 C264.799988,25.299999 264.700012,25.599998 264.400024,25.799999 C264.599976,25.900002 264.599976,25.799999 264.400024,25.799999  z M234.599976,94.099998 c-0.1,-0.1 -0.2,-0.1 -0.4,0 l-0.1,0.3 C234.200012,94.599998 234.299988,94.5 234.599976,94.099998 C234.5,93.900002 234.299988,94.5 234.599976,94.099998  z M235.099976,95.5 c-0.2,-0.6 -0.6,-0.6 -1.3,0.2 C234.200012,95.699997 234.599976,95.699997 235.099976,95.5 C235.299988,95 234.799988,95.5 235.099976,95.5  z M261.799988,72 c0.6,-0.1 0.7,-0.4 0.5,-0.8 C261.900024,71.400002 261.700012,71.599998 261.799988,72 C262.099976,72 261.700012,71.599998 261.799988,72  z M277.599976,36.200001 c-0.2,0.3 -0.4,0.7 -0.4,1.2 C277.5,37 277.599976,36.700001 277.599976,36.200001 C277.599976,36.5 277.700012,36.400002 277.599976,36.200001  z M284.400024,84.199997 c-0.1,0 -0.1,-0.1 -0.1,-0.2 l-0.6,-0.1 l0,0.3 C283.900024,84.400002 284.200012,84.400002 284.400024,84.199997 C284.299988,84.199997 284.200012,84.400002 284.400024,84.199997  z M293.200012,38.900002 c0,-0.2 -0.1,-0.4 -0.2,-0.6 C292.900024,38.799999 293,38.900002 293.200012,38.900002 C293.200012,38.799999 293,38.900002 293.200012,38.900002  z M289.400024,83.400002 c-0.3,0 -0.5,0.2 -0.5,0.5 C289.099976,83.800003 289.299988,83.599998 289.400024,83.400002 C289.200012,83.300003 289.400024,83.599998 289.400024,83.400002  z M313.900024,53.699997 c-0.5,0.2 -0.8,0.5 -0.9,0.9 C313.299988,54.400002 313.599976,54 313.900024,53.699997 C313.599976,53.699997 313.700012,53.800003 313.900024,53.699997  z M321.799988,22 c-0.3,0.2 -0.5,0.4 -0.7,0.7 C321.599976,22.799999 321.799988,22.5 321.799988,22 C321.700012,22.200001 321.900024,22.200001 321.799988,22  z M326.299988,16.799999 c-0.8,0.3 -1.5,0.9 -1.9,1.7 C325,17.900002 325.700012,17.400002 326.299988,16.799999 C325.900024,17 326,17.099998 326.299988,16.799999  z M344.299988,6.700001 c-0.2,0 -0.3,0.1 -0.6,0.4 C344.099976,7.299999 344.299988,7.1 344.299988,6.700001 C344.200012,6.700001 344.200012,6.9 344.299988,6.700001  z "></path></g><g><path fill="#FF0000" d="M17.899994,86.400002 l6.9,13.4 h-7.3 l-5.9,-12.2 h-0.9 v12.2 H4 V53.699997 h9.7 c5.9,0 8.9,3.3 8.9,9.7 v14.5 C22.600006,82 21,84.800003 17.899994,86.400002  z M10.700012,60.199997 v21.1 h1.5 c0.9,0 1.6,-0.1 1.9,-0.2 c1.2,-0.5 1.8,-1.5 1.8,-2.9 V63.400002 c0,-2.1 -1,-3.2 -2.9,-3.2 H10.700012  z "></path><path fill="#FF0000" d="M28.600006,53.699997 h17.3 v6.6 h-10.6 V81 h9.1 v6.6 h-9.1 v5.7 h10.6 v6.6 h-17.3 V53.699997  z "></path><path fill="#FF0000" d="M68.099976,53.699997 v6.6 h-6.2 v39.6 h-6.7 V60.199997 h-6.2 v-6.6 H68.099976  z "></path><path fill="#FF0000" d="M86.200012,86.400002 l6.9,13.4 h-7.3 l-5.9,-12.2 H79 v12.2 h-6.7 V53.699997 h9.7 c5.9,0 8.9,3.3 8.9,9.7 v14.5 C90.900024,82 89.299988,84.800003 86.200012,86.400002  z M79,60.199997 v21 h1.5 c0.9,0 1.6,-0.1 1.9,-0.2 c1.2,-0.5 1.8,-1.5 1.8,-2.9 V63.400002 c0,-2.1 -1,-3.2 -2.9,-3.2 H79  z "></path><path fill="#FF0000" d="M114.5,90.900002 c0,6.5 -3.2,9.7 -9.6,9.7 c-6.4,0 -9.6,-3.2 -9.6,-9.7 V62.599998 c0,-6.5 3.2,-9.7 9.6,-9.7 c6.4,0 9.6,3.2 9.6,9.7 V90.900002  z M107.799988,62.599998 c0,-2.1 -1,-3.1 -2.9,-3.1 h0 c-1.9,0 -2.9,1 -2.9,3.1 v28.3 c0,2.1 1,3.1 2.9,3.1 c1.9,0 2.9,-1 2.9,-3.1 V62.599998  z "></path></g><g><path fill="#FFFF00" d="M560.099976,-142.800003 c2,0.3 2.1,-2.3 3.7,-2.9 c0.2,0 0.3,0 0.5,-0.1 c1.9,-1.5 3.8,-3.1 5.6,-4.7 c0.9,-0.9 1.8,-1.7 2.9,-2.3 c1.3,-1 2.6,-1.9 4,-2.8 c4.2,-1.9 8.4,-3.9 12.6,-5.7 c1.7,-0.6 3.5,-1.1 5.3,-1.6 c0.7,-0.3 1.4,-0.6 2.1,-0.9 c2.4,-0.5 4.8,-1.1 7.2,-1.6 c0.7,-0.3 1.4,-0.5 2.2,-0.7 c0.7,0.1 1.4,-0.1 2,-0.6 c7.4,0.9 15.3,-0.2 23,0.6 c4,0.8 7.8,2.3 11.4,4.3 c1,1.5 2.1,3 3.3,4.5 c-0.2,0.4 0.8,2.5 0,2.5 c0.1,0.6 0.2,1.1 0.2,1.7 c-1.1,-0.4 -1.5,-1.2 -1.4,-2.3 c-0.1,1.4 -0.1,2.8 0.1,4.3 c0.2,-0.1 0.4,-0.2 0.6,-0.3 c0,3.2 -0.8,6.1 -2.4,8.8 c-0.2,0.4 -0.5,0.8 -0.7,1.3 c-0.9,1.8 -1.9,3.5 -3.1,5.1 c-0.3,0.3 -0.3,0.6 -0.1,0.9 c-0.4,-0.2 -0.7,-0.1 -1,0.2 c-0.1,0.2 -0.2,0.4 -0.1,0.6 c-4.2,3.2 -7.3,8.4 -12.6,9.9 c-1.2,0.6 -2.3,1.4 -3.3,2.4 c-0.2,-0.1 -0.3,-0.2 -0.5,-0.3 c-7.4,3.8 -15.7,4.8 -23.6,7.2 c0,0.5 -0.1,1 -0.1,1.5 c-0.8,0.7 -1.4,1.5 -2,2.4 c-0.1,0.3 -0.1,0.7 0,1 c-0.8,1.4 -1.7,2.8 -2.6,4.1 c0,0.4 -0.1,0.8 -0.2,1.1 c-0.5,0.6 -1,1.3 -1.4,2 c-0.2,0.4 -0.3,0.8 -0.5,1.3 c-0.6,1.3 -1.1,2.6 -1.5,3.9 c-0.9,1.3 -1.5,2.6 -2,4.1 c-1.5,4.5 -4.1,8.4 -7.6,11.6 c-0.2,-0.4 -0.3,-0.7 -0.2,-1.1 c-0.5,1.2 -3.3,4.6 -4.7,3.9 c-0.3,0.4 -0.5,0.9 -0.6,1.4 c0.1,0 1.6,-0.6 1.6,-0.8 c-0.8,0.3 -1.6,0.6 -2.4,1 c-0.7,-0.4 -1.4,-0.3 -2,0.3 c-0.8,-0.6 -1.7,-0.8 -2.6,-0.6 c-0.2,-0.4 -0.3,-0.7 -0.3,-1.1 c-0.4,0 -0.9,-0.1 -1.3,-0.2 c-0.2,0.4 -0.4,0.7 -0.7,1 c-0.1,-0.4 -0.4,-0.6 -0.8,-0.7 c0.2,-0.4 0.2,-0.8 0,-1.4 c-0.4,-1 -1.2,-1.7 -2.2,-2.1 c0.3,-0.6 0.4,-1.2 0.3,-1.8 c1.4,-2 2.3,-4.2 2.8,-6.7 h0.5 c1.4,-4.2 2.8,-8.3 4.3,-12.4 c0.2,-0.2 0.4,-0.4 0.6,-0.7 c1.6,-4.3 3.1,-8.7 4.6,-13.1 c2.3,-4.9 4.6,-9.8 6.8,-14.7 c-0.1,-0.4 -0.1,-0.8 0,-1.1 c0.6,-0.5 1,-1.2 0.9,-2.1 c1.9,-3 3.5,-6.2 4.8,-9.5 c-7.3,1.5 -13.6,3.1 -20.1,6.8 c-2.1,1.9 -4,3.9 -5.7,6.1 c-0.7,0.3 -1.3,0.7 -1.7,1.3 c-0.4,0.1 -0.8,-0.1 -1,-0.5 c-1,-0.5 -2,-1.1 -3,-1.7 c-0.5,-1 -1.2,-2 -1.8,-2.9 c0.9,-2.4 2.3,-4.5 4.3,-6.2 C560.200012,-142.300003 560.099976,-142.5 560.099976,-142.800003 C560.700012,-142.800003 560.099976,-142.5 560.099976,-142.800003  z M607.300049,-136.300003 c4.8,-2.2 8.1,-6.3 12.6,-9 c0.1,-0.8 0.5,-1.5 1.1,-2.1 c0.6,-0.2 1.1,-0.3 1.7,-0.3 c0,-1.5 -0.1,-3.2 -0.3,-4.9 c-1.4,0.4 -2.7,0.3 -3.9,-0.3 c-1.3,2.5 -5.1,0.4 -7.1,1 c-1.7,2.5 -2.2,5.4 -3.7,8 c0.1,0.4 0.2,0.7 0.3,1 c-1.7,2.3 -2.9,4.8 -3.4,7.6 C605.900024,-134.699997 606.800049,-135 607.300049,-136.300003 C608.599976,-136.899994 607.199951,-135.800003 607.300049,-136.300003  z M644.400024,-155.5 c0.2,-0.4 0.1,-0.8 -0.2,-1.1 c0,0.2 -0.1,0.2 -0.3,0.1 C643.800049,-156 644,-155.600006 644.400024,-155.5 C644.5,-155.5 644,-155.600006 644.400024,-155.5  z "></path><path fill="#FFFF00" d="M701.5,-104.300003 c-0.2,-0.1 -0.4,-0.3 -0.6,-0.3 c-2.2,1.2 -4.4,2.3 -6.7,3.3 c-0.2,0.3 -0.3,0.6 -0.6,0.8 c-5.4,1.8 -10.6,4 -15.6,6.6 c-4.2,2.2 -9.2,2.9 -13.6,4.8 c-0.2,0.2 -0.5,0.3 -0.7,0.5 c-0.5,0 -0.9,0.1 -1.4,0.1 c-0.6,0.4 -1.3,0.6 -2,0.7 c-0.2,0.1 -0.4,0.4 -0.7,1 c-1,0 -1.9,0.3 -2.6,0.9 c-2.8,0.6 -5.6,1 -8.5,1.4 c-1.2,-0.2 -2.4,-0.5 -3.4,-1 c-2.8,0 -4.6,-2 -7.1,-2.6 c-0.6,-0.8 -1,-1.7 -1.1,-2.6 c-0.2,-0.6 -0.6,-0.8 -1.1,-0.6 c-1.1,-1.7 -2.2,-3.4 -3.2,-5.2 c0,-0.4 0.2,-0.7 0.5,-1 c-0.5,-0.6 -0.8,-1.4 -0.9,-2.2 c-1.6,-2.2 -2.1,-4.6 -1.4,-7.2 c0,-1.2 0.4,-2.2 1,-3.2 c1.4,-4.3 3.2,-8.5 5.4,-12.4 c-1.2,-0.6 0.4,-1.5 0,-2.3 c0.5,0 0.9,-0.2 1.4,-0.5 c0.3,-0.6 0.6,-1.1 0.9,-1.7 c1.1,-2.1 2.3,-4.2 3.4,-6.2 c1,-1.9 2,-3.7 3,-5.5 c0.7,-0.9 1,-2 0.9,-3.1 c-0.4,0 -0.7,-0.2 -0.9,-0.6 c-0.2,0.2 -0.3,0.5 -0.5,0.8 c-0.8,-0.5 -1.6,-0.8 -2.5,-1 c-0.1,-0.5 0,-1.2 0.1,-2 c1.1,-1 2.1,-2.2 2.9,-3.4 c5.7,-2.7 11.3,-5 17.1,-7.5 c2.2,0.4 4.2,-1.5 6.4,-1.5 c0.3,-0.1 0.5,-0.2 0.6,-0.5 c0.2,0.2 0.4,0.3 0.7,0.3 c4.6,-1.1 9.2,-2.1 13.8,-3.1 c0.3,0 0.6,0.1 0.9,0.2 c2.2,-0.4 4.5,-1 6.7,-1.6 c1.9,0 3.8,-0.1 5.7,-0.3 c0.5,-0.2 0.8,-0.4 0.9,-0.8 c7.1,-0.8 15.2,-1.1 22.2,-2.3 c0.4,-0.1 0.9,-0.3 1.3,-0.5 c2.1,0.2 4.1,0.3 6.2,0.2 c0,0.4 0.1,0.8 0.2,1.1 c-0.4,0.2 -0.9,0.2 -1.4,0.1 c-0.1,0.4 -0.4,0.8 -0.7,1.1 c0.2,0.2 0.4,0.3 0.6,0.6 c0.4,-0.4 0.9,-0.4 1.4,-0.2 c-0.5,0.5 -0.9,0.9 -1.4,1.4 c-0.2,0 -0.3,-0.2 -0.3,-0.5 c-0.3,0.5 -0.8,0.7 -1.4,0.7 v0.9 c0.2,0.1 0.5,0.2 0.8,0.2 c-0.5,0.8 -1.2,1.2 -2.2,1 c-0.2,0.3 -0.3,0.6 -0.5,0.9 c-1.1,0.3 -2.1,0.4 -3.2,0.3 c0.2,0.3 0.2,0.6 0,0.9 c-0.3,-0.3 -0.5,-0.5 -0.7,-0.5 c-1.4,1.3 -3,2.2 -4.8,2.6 c-0.6,0.1 -1.2,0.2 -1.8,0.2 c-1.6,0.7 -3.2,1.2 -4.8,1.7 c-3,0.6 -5.8,1.5 -8.5,2.8 c-6.5,1.9 -13.1,3.5 -19.7,5.1 c-1.4,0.2 -2.8,0.6 -4.1,1.1 c-1.1,1.1 -1.6,2.5 -1.5,4 c-0.3,0.1 -0.5,0.2 -0.8,0.2 c-1.1,2.4 -2.4,4.7 -3.8,7 c2,0.2 3.9,0.1 5.7,-0.6 c0.4,0 0.8,0.1 1.3,0.2 c6.7,-1.5 13.6,-2.2 20.3,-3.4 c0.7,0 1.4,0 2.1,0 c1.9,0 7.1,-0.3 8.3,-1.7 c3.1,-0.2 6.2,-0.4 9.3,-0.6 c-0.1,0.4 -0.4,0.6 -0.9,0.6 c0.5,0.5 1.1,0.7 1.8,0.5 c0,0.4 -0.2,0.7 -0.3,1 c-0.4,0 -0.8,0 -1.1,-0.1 c0.2,0.6 0.4,1.2 0.6,1.8 c-0.9,-0.1 -1.7,0 -2.5,0.5 c0,0.3 -0.1,0.6 -0.1,0.9 c-0.9,0.1 -1.5,0.5 -1.8,1.4 c-1.2,0.3 -2.3,1 -3.1,2 c-2.3,0.6 -4.6,1.4 -6.8,2.2 c-0.4,0.3 -0.7,0.6 -1,0.9 c-0.7,-0.4 -1.3,-0.2 -1.7,0.5 c-0.6,-0.3 -1.1,-0.1 -1.4,0.5 c-0.3,0 -0.7,-0.1 -1,-0.1 c-1.5,1.1 -3.1,1.6 -4.9,1.4 c-1.1,1.5 -3.8,0.1 -4.9,1.6 c-1.6,0.2 -3.1,0.4 -4.7,0.7 c-3.5,0.9 -7,1.8 -10.5,2.5 c-1,-0.1 -1.8,0.1 -2.5,0.7 c-2.5,0 -4.9,0.3 -7.4,0.9 c-2.6,4.3 -5.1,8.6 -7.5,13.1 c2.2,-0.4 4.4,-1.1 6.6,-2 c1.3,-0.1 2.4,-0.5 3.3,-1.4 c0.2,0 0.3,0.1 0.5,0.2 c2.5,-1 5.1,-1.8 7.7,-2.3 c0.7,-0.4 1.5,-0.8 2.3,-1 c0.3,0 0.7,0.1 1,0.1 c1.4,-0.4 2.7,-1 4.1,-1 c0.6,-0.1 11.3,-3.1 11.3,-1.5 c3.4,0 8.5,-0.6 11.4,1.5 c0.1,0.4 -0.1,0.7 -0.5,0.8 c0.4,1 1.1,1.9 2,2.5 c-0.1,0.4 -0.2,0.8 -0.2,1.1 c0.3,0.1 0.6,0.2 0.9,0.5 C704,-106.400002 702.800049,-105.300003 701.5,-104.300003 C701.300049,-104.300003 702.099976,-105.199997 701.5,-104.300003  z M676.800049,-144.699997 c-0.4,-0.2 -0.6,-0.1 -0.7,0.3 C676.400024,-144.300003 676.699951,-144.399994 676.800049,-144.699997  z "></path><path fill="#FFFF00" d="M732.199951,-149.199997 c0.2,-0.3 0.6,-0.4 0.9,-0.2 c0.1,-0.2 0.2,-0.5 0.3,-0.7 c0.3,-0.2 0.5,-0.1 0.7,0.2 c0.7,0 0.1,-0.6 0.9,0.2 c0,-0.4 0.2,-0.6 0.6,-0.7 c0.2,0.2 0.2,0.4 0.2,0.7 c1.7,1.3 2.1,2.8 1,4.7 c0.2,0.2 0.3,0.4 0.3,0.7 c0,2.9 -0.8,5.6 -2.2,8 c0.1,0.2 0.2,0.4 0.1,0.7 c-0.2,0.7 -0.4,1.5 -0.5,2.3 c-0.5,1 -0.9,2 -1.1,3.1 c-0.5,1 -0.9,2.1 -1.3,3.2 c-0.1,0.3 -0.1,0.5 0,0.8 c-0.7,1.6 -1.2,3.3 -1.3,5.1 c4.5,-4.3 8.6,-8.9 12.3,-13.8 c0.1,0 0.2,0.1 0.3,0.1 c1.1,-2.3 2.7,-4.5 4,-6.7 c0.9,-0.8 1.8,-1.5 2.8,-2.2 c2.6,0.3 5.3,0.5 7.9,0.6 c0.3,-0.1 0.5,-0.3 0.7,-0.6 c0.1,0 0.2,0.3 0.3,0.8 c0.7,0.2 1.4,0.2 2.1,0.2 c0,0.2 0.1,0.4 0.1,0.6 c1.1,-0.3 1.7,0.8 2.8,0.8 c0.2,0.6 0.6,1 1.3,1.3 c0.7,1 1.3,2.1 1.6,3.3 c0.1,0.2 0,0.3 -0.2,0.3 c0.1,1.5 0.4,2.9 0.9,4.3 c-0.3,0 -0.5,0 -0.8,0 c-0.3,1.6 -0.3,3.2 -0.1,4.8 c1.4,-1.9 2.6,-3.9 3.8,-6 c-0.1,-0.2 -0.3,-0.3 -0.5,-0.5 c0.1,-0.6 0.4,-0.8 0.9,-0.6 c1.3,-1.9 2.5,-3.8 3.7,-5.7 c0.6,-0.4 0.9,-0.9 0.9,-1.6 c0.8,-0.4 1.4,-1.1 1.6,-2.3 c3.8,-5 7.7,-10.1 11.6,-15.1 c-0.1,0 -0.1,-0.2 -0.1,-0.5 c3.1,-4 6.5,-7.8 10,-11.5 c0.2,0 0.3,0 0.5,0 c1.2,-1.5 2.6,-2.9 4,-4.1 c-0.5,1.1 -1.2,2.2 -1.8,3.2 c0.9,-0.4 1.5,-1 1.8,-2 c0.7,-0.5 1.3,-0.9 2.1,-1.3 c1.4,-1.4 2.9,-2.7 4.4,-4 c0.1,0 0.1,-0.1 0.1,-0.2 c0.9,-0.8 1.8,-1.4 2.9,-1.8 c0.4,1.2 0,2.2 -0.9,3 c0.2,0.3 0.5,0.5 0.7,0.8 c-1.4,0.3 -1.8,1.1 -1.4,2.5 c-0.2,0.7 -0.5,1.1 -0.9,1.3 c1.1,-0.1 2.1,0.2 3,0.7 c0.4,-0.2 0.8,-0.3 1.3,-0.5 c0.1,0.2 0.3,0.4 0.5,0.6 c-0.4,0.6 -0.8,1.2 -1.1,1.8 c-0.4,2 -0.9,3.9 -1.6,5.9 c-0.3,0.2 -0.5,0.5 -0.8,0.7 c-0.6,1.7 -1.5,3.3 -2.6,4.7 c-0.6,2.2 -2.6,3.9 -2.9,6.2 c-0.9,1.2 -1.8,2.4 -2.5,3.7 c0.2,0.1 0.3,0.2 0.3,0.5 c-0.4,0.4 -0.8,0.8 -1.3,1.1 c-0.6,2.5 -3.3,5.1 -4.3,7.6 c-0.7,0.2 -1.1,0.8 -1.3,1.6 c-0.2,0.1 -0.5,0.2 -0.7,0.5 c-4.8,9.3 -11.2,17.8 -15.4,27.5 c-1.6,2.7 -3.2,5.4 -4.6,8.2 c0.8,1.3 0.1,0.6 -0.5,0.8 c-1,2.5 -2.4,4.9 -4,7 c-1,3.4 -2.9,6 -5.9,7.9 c-2.2,0.9 -4.3,0.7 -6.2,-0.6 c-0.8,-0.1 -1.5,0 -2.3,0.2 c-1.4,-1.1 -3,-2.1 -4.6,-2.9 c-1.9,-0.2 -3.2,-1.1 -3.9,-2.9 c-0.2,0.2 -0.4,0.4 -0.7,0.5 c-0.1,-0.5 -0.2,-0.9 -0.1,-1.4 c-0.2,-0.2 -0.5,-0.4 -0.8,-0.6 c-0.4,-2.3 -0.7,-4.6 -1,-6.9 c0.2,-2.7 0.3,-5.4 0.5,-8.2 c-1.1,0.9 -2,2 -2.6,3.1 c-1.3,1 -2.4,2.2 -3.1,3.7 c-0.3,0.2 -0.5,0.3 -0.8,0.5 c-3.7,4.9 -7.7,9.5 -12,13.9 c-0.9,1.1 -1.9,2.2 -3,3.1 c-0.5,0.5 -1.1,1 -1.7,1.5 c0,0.2 0.1,0.3 0.1,0.5 c-0.3,0.1 -0.5,0.1 -0.8,0 c-2,1.7 -5.6,3.4 -8.2,1.8 c0.1,-0.2 0.2,-0.5 0.2,-0.7 c-0.2,0.2 -0.4,0.3 -0.6,0.5 c0,-0.1 0,-0.2 -0.1,-0.2 c-0.3,-0.4 -0.1,-0.8 0.5,-0.9 c-0.7,-0.9 -1.7,-1.2 -2.8,-0.7 c-0.7,-0.3 -1.4,-0.4 -2.1,-0.5 c-0.2,-0.5 -0.5,-0.9 -0.9,-1.3 c0,0.2 0.1,0.5 0.1,0.7 c-0.6,-0.6 -1.2,-1.2 -2,-1.6 c-1,-0.9 -1.4,-2.1 -1.1,-3.4 c-0.2,-0.2 -0.5,-0.3 -0.7,-0.5 c0,-0.7 0.1,-1.3 0.3,-2 c-0.2,-0.7 -0.8,-1.1 -0.5,-1.8 c0.3,-3 0.9,-5.9 1.7,-8.7 c-0.1,-0.5 0,-1 0.2,-1.5 c0.8,-3.5 1.8,-7 3.1,-10.3 c0.1,-0.5 0.1,-1.1 0,-1.6 c2.6,-3.4 1.6,-8.5 2.8,-12.4 c0.9,-3 1.7,-5.9 2.6,-8.8 c-0.3,0 -0.5,-0.2 -0.6,-0.5 c1,-0.9 1.5,-2.1 1.5,-3.4 c0.8,-2.2 1.7,-4.3 2.6,-6.4 c-0.2,-0.2 -0.3,-0.5 -0.2,-0.7 c0.5,-0.9 0.8,-1.9 1,-2.9 c0,-0.2 -0.1,-0.3 -0.3,-0.3 c0,-0.2 0.3,-0.3 0.8,-0.3 c0.3,-0.7 0.4,-1.4 0.5,-2.1 c1,-0.2 2,-0.4 3,-0.7 c-0.2,0.6 -0.6,1 -1.1,1.1 c0.3,0.2 0.6,0.4 0.9,0.6 c0.4,-0.4 0.9,-0.6 1.5,-0.6 c-0.2,0.3 -0.5,0.5 -0.8,0.7 c0.1,0.2 0.1,0.4 0,0.6 c0.4,0 0.7,-0.2 0.9,-0.5 c0.5,0.4 1,0.5 1.6,0.5 c0.1,0.3 0.1,0.7 0.2,1 c0.5,0 0.9,-0.1 1.3,-0.3 c0.4,0.1 0.8,0.3 1.1,0.5 c-0.6,1.1 0,0 0.8,0.5 c0.1,0.2 0.2,0.5 0.3,0.7 c0.2,-0.1 0.3,-0.3 0.5,-0.5 c0.4,0.2 0.8,0.4 1.3,0.5 C732.599976,-149.699997 732.5,-149.399994 732.199951,-149.199997 C732.300049,-149.100006 732.300049,-149.199997 732.199951,-149.199997  z M715.5,-83.199997 c-0.1,-0.1 -0.3,-0.1 -0.5,0 v0.2 C715.199951,-82.900002 715.400024,-83 715.5,-83.199997 C715.400024,-83.400002 715.400024,-83 715.5,-83.199997  z M716.699951,-82.199997 c-0.5,-0.5 -0.9,-0.5 -1.4,0.1 C715.800049,-82 716.199951,-82 716.699951,-82.199997 C716.599976,-82.5 716.400024,-82.199997 716.699951,-82.199997  z M736.300049,-100.400002 c0.6,-0.1 0.7,-0.4 0.3,-0.8 C736.199951,-101.099998 736.099976,-100.800003 736.300049,-100.400002 C736.599976,-100.400002 736.099976,-100.800003 736.300049,-100.400002  z M747.599976,-140.100006 c-0.2,0.4 -0.3,0.8 -0.2,1.3 C747.599976,-139.199997 747.599976,-139.600006 747.599976,-140.100006 C747.599976,-139.899994 747.699951,-139.899994 747.599976,-140.100006  z M762.199951,-87.699997 c-0.1,0 -0.1,-0.1 -0.1,-0.2 h-0.7 v0.3 C761.699951,-87.400002 762,-87.400002 762.199951,-87.699997 C762.099976,-87.699997 762,-87.400002 762.199951,-87.699997  z M764.599976,-139.399994 c-0.1,-0.2 -0.2,-0.4 -0.3,-0.6 C764.199951,-139.5 764.400024,-139.300003 764.599976,-139.399994 C764.599976,-139.5 764.400024,-139.300003 764.599976,-139.399994  z M767.599976,-89.5 c-0.4,0.1 -0.5,0.3 -0.5,0.7 C767.400024,-89 767.5,-89.199997 767.599976,-89.5 C767.400024,-89.599998 767.599976,-89.300003 767.599976,-89.5  z M788.800049,-126.600006 c-0.4,0.3 -0.7,0.6 -0.8,1.1 C788.400024,-125.800003 788.599976,-126.199997 788.800049,-126.600006 C788.5,-126.600006 788.699951,-126.5 788.800049,-126.600006  z M791.099976,-160.100006 c-0.3,0.2 -0.5,0.5 -0.6,0.8 C791.099976,-159.300003 791.300049,-159.600006 791.099976,-160.100006 C791.099976,-159.899994 791.300049,-159.899994 791.099976,-160.100006  z M794.699951,-165.699997 c-0.8,0.4 -1.3,1 -1.6,1.8 C793.699951,-164.5 794.199951,-165.100006 794.699951,-165.699997 C794.400024,-165.5 794.5,-165.300003 794.699951,-165.699997  z M810.5,-177.199997 c-0.2,0 -0.3,0.2 -0.5,0.5 C810.300049,-176.699997 810.5,-176.800003 810.5,-177.199997 C810.300049,-177.199997 810.400024,-177.100006 810.5,-177.199997  z "></path></g><g><path fill="#FF0000" d="M112.900024,37.299999 c1.5,0.4 1.3,-2.1 2.4,-2.6 c0.1,0 0.2,0 0.3,-0.1 c1.3,-1.4 2.5,-2.9 3.8,-4.4 c0.6,-0.9 1.2,-1.6 2,-2.2 c0.9,-1 1.8,-1.8 2.8,-2.6 c3.1,-1.8 6.2,-3.5 9.4,-5.3 c1.4,-0.5 2.8,-1 4.2,-1.5 c0.5,-0.3 1.1,-0.6 1.7,-0.9 c2,-0.5 4.1,-1.1 6.3,-1.6 c0.6,-0.3 1.3,-0.5 2,-0.7 c0.7,0.1 1.3,-0.1 1.8,-0.6 c7.7,0.8 15.4,-0.5 23.1,0.3 c3.9,0.9 7.6,2.5 11.1,4.7 c1.2,1.6 2.5,3.2 3.7,4.7 c-0.1,0.4 1.1,2.6 0.5,2.5 c0.2,0.6 0.4,1.2 0.5,1.7 c-0.8,-0.5 -1.3,-1.3 -1.4,-2.4 c0.2,1.4 0.5,2.8 0.8,4.2 c0.2,0 0.3,-0.1 0.4,-0.3 c0.4,3.2 0.1,6 -1,8.7 c-0.2,0.4 -0.3,0.8 -0.5,1.2 c-0.7,1.7 -1.6,3.4 -2.6,5 c-0.3,0.2 -0.3,0.6 -0.2,1 c-0.3,-0.2 -0.6,-0.1 -0.8,0.2 c-0.1,0.2 -0.2,0.4 -0.2,0.6 c-3.9,3.1 -7.6,8.5 -12.9,9.9 c-1.3,0.6 -2.5,1.5 -3.6,2.5 c-0.2,-0.1 -0.3,-0.2 -0.4,-0.4 c-7.4,3.8 -14.8,4.7 -21.1,6.6 c0,0.5 0,0.9 0,1.4 c-0.5,0.6 -1,1.3 -1.3,2.1 c0,0.3 0,0.6 0.1,0.9 c-0.5,1.2 -1,2.4 -1.6,3.6 c0,0.4 0,0.7 -0.1,1 c-0.3,0.5 -0.6,1.1 -0.9,1.7 c-0.1,0.4 -0.2,0.7 -0.2,1.1 c-0.3,1.1 -0.6,2.2 -0.7,3.4 c-0.5,1 -0.9,2.2 -1.1,3.5 c-0.7,3.8 -2.2,6.9 -4.4,9.4 c-0.2,-0.3 -0.3,-0.6 -0.3,-1 c-0.2,1 -1.9,3.7 -3,3 c-0.2,0.3 -0.3,0.7 -0.3,1.1 c0.1,0 1.1,-0.4 1.1,-0.6 c-0.6,0.2 -1.1,0.4 -1.6,0.7 c-0.6,-0.4 -1,-0.3 -1.4,0.1 c-0.6,-0.6 -1.3,-0.8 -1.9,-0.7 c-0.2,-0.3 -0.3,-0.6 -0.4,-1 c-0.3,0 -0.6,-0.1 -0.9,-0.3 c-0.1,0.3 -0.2,0.6 -0.4,0.8 c-0.1,-0.3 -0.3,-0.5 -0.6,-0.6 c0.1,-0.3 0,-0.7 -0.1,-1.2 c-0.4,-0.9 -1,-1.5 -1.8,-1.9 c0.1,-0.5 0.1,-1 0,-1.5 c0.8,-1.6 1.2,-3.4 1.2,-5.5 l0.3,0 c0.5,-3.5 1.1,-7 1.7,-10.6 c0.2,-0.2 0.3,-0.3 0.3,-0.6 c0.7,-3.8 1.4,-7.6 2,-11.6 c1.2,-4.4 2.4,-8.8 3.6,-13.4 c-0.1,-0.4 -0.1,-0.7 -0.1,-1.1 c0.4,-0.5 0.6,-1.1 0.5,-1.9 c1.2,-2.8 2.1,-5.9 2.9,-9.1 c-5.6,1.1 -10.4,2.4 -14.9,5.6 c-1.4,1.7 -2.6,3.5 -3.6,5.5 c-0.5,0.2 -0.9,0.6 -1.1,1.1 c-0.3,0.1 -0.6,-0.1 -0.8,-0.5 c-0.9,-0.5 -1.7,-1.1 -2.5,-1.8 c-0.5,-1 -1.1,-1.9 -1.8,-2.9 c0.3,-2.3 1.1,-4.2 2.4,-5.8 C113,37.799999 112.900024,37.599998 112.900024,37.299999 C113.299988,37.400002 112.900024,37.599998 112.900024,37.299999  z M152.599976,45.299999 c5,-2.4 8.6,-6.8 13.4,-9.6 c0.1,-0.8 0.4,-1.5 1,-2.1 c0.6,-0.2 1.2,-0.3 1.8,-0.4 c-0.2,-1.5 -0.6,-3.1 -1.2,-4.9 c-1.4,0.5 -2.8,0.4 -4.3,-0.2 c-0.9,2.6 -5.5,0.6 -7.6,1.4 c-1.5,2.6 -1.7,5.5 -3.1,8.2 c0.1,0.3 0.3,0.7 0.4,1 c-1.7,2.3 -2.8,4.9 -3.3,7.7 C151.200012,46.900002 152.099976,46.599998 152.599976,45.299999 C153.900024,44.599998 152.5,45.799999 152.599976,45.299999  z M186.700012,26.299999 c0.1,-0.4 -0.1,-0.8 -0.4,-1.2 c0,0.2 0,0.2 -0.2,0.1 C186.200012,25.799999 186.400024,26.099998 186.700012,26.299999 C186.799988,26.299999 186.400024,26.099998 186.700012,26.299999  z "></path><path fill="#FF0000" d="M236.900024,83.5 c-0.3,-0.1 -0.6,-0.3 -0.8,-0.4 c-1.5,0.9 -3.3,1.7 -5.3,2.5 c0,0.3 -0.1,0.5 -0.3,0.7 c-5.6,1.2 -11.2,2.7 -16.7,4.6 c-4.5,1.7 -9.9,2 -14.5,3.6 c-0.2,0.1 -0.5,0.3 -0.7,0.4 c-0.5,0 -1,0.1 -1.5,0.1 c-0.7,0.3 -1.4,0.5 -2.1,0.6 c-0.2,0.1 -0.4,0.4 -0.7,0.9 c-1.1,0.1 -2.1,0.4 -2.9,0.9 c-3.2,0.7 -6.5,1.2 -9.7,1.6 c-1.3,-0.1 -2.6,-0.4 -3.8,-0.8 c-2.9,0 -4.7,-1.7 -7.1,-2.3 c-0.5,-0.7 -0.8,-1.5 -0.9,-2.4 c-0.1,-0.6 -0.4,-0.8 -0.9,-0.6 c-0.8,-1.6 -1.4,-3.2 -1.9,-5 c0.1,-0.4 0.3,-0.7 0.6,-1 c-0.3,-0.7 -0.3,-1.4 -0.3,-2.2 c-0.7,-2.2 -0.4,-4.7 0.9,-7.3 c0.4,-1.2 1,-2.3 1.8,-3.2 c2.4,-4.4 5,-8.7 7.5,-12.7 c-0.9,-0.7 0.5,-1.5 0.3,-2.3 c0.4,0 0.8,-0.1 1.2,-0.4 c0.3,-0.6 0.6,-1.1 0.9,-1.7 c1,-2 2,-4 2.9,-6 c0.7,-1.8 1.5,-3.5 2.2,-5.3 c0.5,-0.9 0.7,-1.9 0.6,-3 c-0.3,-0.1 -0.6,-0.3 -0.8,-0.6 c-0.1,0.2 -0.3,0.5 -0.3,0.8 c-0.7,-0.5 -1.4,-0.9 -2.1,-1.2 c-0.1,-0.5 -0.1,-1.2 0,-2 c0.9,-1 1.6,-2.1 2.2,-3.3 c4.6,-2.5 9,-4.7 13.2,-7.2 c1.6,0.4 2.9,-1.6 4.3,-1.6 c0.2,-0.1 0.3,-0.2 0.3,-0.5 c0.1,0.2 0.3,0.3 0.5,0.4 c2.8,-1.2 5.5,-2.3 8.2,-3.4 c0.2,0 0.4,0.1 0.6,0.3 c1.3,-0.5 2.6,-1 3.9,-1.7 c1.1,0 2.3,-0.1 3.5,-0.3 c0.3,-0.2 0.5,-0.4 0.6,-0.9 c4.7,-0.7 10.8,-0.3 17.1,-0.8 c0.4,-0.1 0.9,-0.2 1.3,-0.3 c1.9,0.5 3.9,0.9 5.9,1.2 c-0.2,0.5 -0.3,0.9 -0.3,1.3 c-0.5,0.2 -1,0.1 -1.4,-0.1 c-0.3,0.5 -0.7,0.9 -1.1,1.2 c0.2,0.2 0.3,0.5 0.3,0.7 c0.5,-0.4 1,-0.4 1.4,-0.1 c-0.6,0.5 -1.2,0.9 -1.8,1.4 c-0.2,0 -0.3,-0.2 -0.1,-0.6 c-0.5,0.5 -1,0.7 -1.5,0.6 l-0.3,1 c0.2,0.2 0.4,0.3 0.6,0.4 c-0.7,0.8 -1.4,1.1 -2.2,0.9 c-0.2,0.3 -0.4,0.6 -0.6,1 c-0.9,0.1 -1.8,0.1 -2.6,-0.1 c0.1,0.4 0.1,0.7 -0.2,1.1 c-0.2,-0.4 -0.3,-0.6 -0.4,-0.6 c-1.2,1.3 -2.5,2.1 -3.8,2.4 c-0.4,0 -0.8,0.1 -1.3,0.1 c-1.1,0.6 -2.1,1.1 -3.1,1.5 c-1.8,0.4 -3.4,1.2 -4.8,2.5 c-3.4,1.8 -6.8,3.4 -10.5,4.8 c-0.8,0.2 -1.6,0.5 -2.4,1.1 c-0.6,1.2 -0.7,2.6 -0.5,4.2 c-0.2,0.1 -0.3,0.1 -0.5,0.2 c-0.5,2.5 -1.2,4.8 -2.1,7.1 c1.5,0.4 2.9,0.3 4.2,-0.3 c0.3,0.1 0.6,0.2 0.9,0.3 c4.1,-1.2 8,-1.5 11.5,-2.4 c0.4,0.1 0.7,0.1 1.1,0.2 c1,0.1 3.7,0.3 4.1,-1.2 c1.6,0.1 3.2,0.1 4.8,0.3 c0,0.4 -0.1,0.6 -0.4,0.5 c0.3,0.6 0.7,0.8 1,0.7 c0,0.4 0,0.8 0,1.1 c-0.2,0 -0.4,-0.1 -0.6,-0.2 c0.2,0.7 0.4,1.4 0.6,2 c-0.5,-0.2 -0.9,-0.2 -1.2,0.3 c0,0.3 0.1,0.6 0.1,1 c-0.5,0 -0.7,0.4 -0.6,1.3 c-0.6,0.2 -0.9,0.8 -1.1,1.8 c-1,0.5 -2,1.1 -3,1.7 c-0.1,0.3 -0.2,0.5 -0.3,0.9 c-0.5,-0.4 -0.8,-0.3 -0.8,0.3 c-0.4,-0.3 -0.6,-0.2 -0.7,0.4 c-0.2,-0.1 -0.4,-0.1 -0.6,-0.2 c-0.5,1 -1.4,1.3 -2.6,1 c-0.4,1.4 -2.4,-0.3 -2.9,1.2 c-1,0.1 -2.1,0.2 -3.2,0.3 c-2.5,0.6 -5.1,1.1 -7.8,1.6 c-0.8,-0.2 -1.5,0 -2,0.5 c-2.1,-0.2 -4.1,0 -6.2,0.4 c-2.5,4 -5.2,8.1 -8.1,12.4 c2.3,-0.4 4.5,-1 6.7,-1.8 c1.2,0 2.3,-0.4 3.2,-1.2 c0.2,0 0.3,0.1 0.4,0.2 c2.3,-0.8 4.6,-1.4 7,-1.7 c0.6,-0.3 1.3,-0.6 2,-0.8 c0.3,0.1 0.6,0.1 0.9,0.2 c1.2,-0.2 2.2,-0.7 3.5,-0.6 c0.5,-0.1 8.6,-1.9 9.1,-0.4 c2.7,0.3 6.4,0.2 9.8,2.4 c0.3,0.4 0.4,0.6 0.1,0.7 c1,1 2.1,1.8 3.3,2.5 c0.1,0.3 0.4,0.7 0.6,1 c0.4,0.1 0.8,0.3 1.2,0.5 C237.900024,81.699997 237.5,82.699997 236.900024,83.5 C236.599976,83.5 236.900024,82.800003 236.900024,83.5  z M207.900024,41.400002 c-0.3,-0.2 -0.4,-0.1 -0.4,0.4 C207.700012,41.799999 207.799988,41.700001 207.900024,41.400002  z "></path><path fill="#FF0000" d="M264.400024,22.200001 c0.3,-0.3 0.5,-0.3 0.9,-0.1 c0.1,-0.2 0.3,-0.4 0.4,-0.6 c0.3,-0.1 0.5,0 0.6,0.3 c0.6,0.1 0.1,-0.5 0.8,0.3 c0.1,-0.4 0.3,-0.6 0.6,-0.6 c0.1,0.2 0.2,0.4 0.1,0.7 c1.5,1.4 1.6,3 0.5,4.6 c0.1,0.2 0.2,0.4 0.2,0.7 c-0.3,2.7 -1.3,5.1 -2.8,7.3 c0.1,0.2 0.1,0.4 0,0.7 c-0.3,0.7 -0.5,1.4 -0.6,2.1 c-0.5,0.9 -1,1.8 -1.3,2.7 c-0.5,0.9 -1,1.8 -1.4,2.8 c-0.1,0.2 -0.1,0.5 -0.1,0.7 c-0.8,1.4 -1.4,2.9 -1.7,4.5 c4.5,-3.4 8.6,-7.1 12.5,-11.1 c0.1,0 0.2,0.1 0.3,0.1 c1.3,-2 2.9,-3.9 4.4,-5.7 c0.9,-0.6 1.8,-1.2 2.8,-1.7 c2.4,0.6 4.8,1.1 7.3,1.5 c0.3,-0.1 0.5,-0.3 0.7,-0.5 c0.1,0 0.1,0.3 0.2,0.8 c0.6,0.2 1.2,0.4 1.9,0.5 c0,0.2 0,0.4 0,0.6 c1.1,-0.1 1.5,1 2.5,1.1 c0.1,0.6 0.5,1.1 1,1.3 c0.5,1 0.9,2.2 1,3.3 c0,0.2 0,0.3 -0.3,0.3 c-0.1,1.4 0,2.7 0.3,4.1 c-0.2,0 -0.5,-0.1 -0.7,-0.1 c-0.5,1.4 -0.7,2.9 -0.8,4.4 c1.5,-1.6 3,-3.3 4.3,-5 c-0.1,-0.2 -0.2,-0.4 -0.4,-0.5 c0.2,-0.6 0.5,-0.7 0.9,-0.4 c1.5,-1.6 2.9,-3.2 4.3,-4.9 c0.6,-0.3 1,-0.7 1.1,-1.4 c0.9,-0.3 1.5,-0.9 1.9,-2 c4.4,-4.4 9,-8.8 13.6,-13.3 c-0.1,0 -0.1,-0.2 0,-0.5 c3.8,-3.6 7.8,-7.1 12,-10.5 c0.2,0 0.3,0 0.5,0.1 c1.5,-1.4 3.1,-2.7 4.9,-3.8 c-0.8,1.1 -1.6,2.1 -2.5,3.1 c1,-0.3 1.7,-0.9 2.2,-1.8 c0.8,-0.4 1.5,-0.8 2.3,-1.1 c1.7,-1.3 3.5,-2.5 5.3,-3.7 c0.1,0 0.1,-0.1 0.2,-0.2 c1,-0.7 2.2,-1.2 3.3,-1.6 c0.1,1.3 -0.4,2.3 -1.6,3.1 c0.2,0.3 0.3,0.6 0.5,0.9 c-1.5,0.1 -2.1,1 -1.9,2.5 c-0.3,0.7 -0.7,1.1 -1.2,1.2 c1.1,0.1 2,0.4 2.9,1.1 c0.4,-0.1 0.9,-0.2 1.4,-0.3 c0.1,0.2 0.2,0.5 0.3,0.6 c-0.5,0.6 -1.1,1.2 -1.6,1.8 c-0.8,2 -1.8,3.9 -2.9,5.8 c-0.3,0.2 -0.6,0.4 -0.9,0.6 c-1,1.6 -2.2,3.1 -3.6,4.4 c-1,2.2 -3.4,3.6 -4.1,5.8 c-1.1,1 -2.2,2.1 -3.2,3.3 c0.2,0.1 0.3,0.3 0.2,0.5 c-0.5,0.3 -1,0.6 -1.4,1 c-1,2.4 -4.1,4.5 -5.5,6.8 c-0.7,0.1 -1.2,0.6 -1.5,1.4 c-0.2,0 -0.5,0.2 -0.7,0.3 c-6.1,8.1 -13.4,15 -18.7,23.1 c-1.9,2.1 -3.6,4.3 -5.3,6.5 c0.5,1.2 0,0.6 -0.5,0.6 c-1.2,2 -2.7,3.8 -4.5,5.5 c-1.3,2.7 -3.4,4.6 -6.1,5.9 c-2,0.4 -3.9,0.1 -5.4,-1.2 c-0.7,-0.1 -1.4,-0.1 -2.1,0 c-1.2,-1 -2.5,-1.9 -3.9,-2.7 c-1.8,-0.2 -2.9,-1.1 -3.3,-2.6 c-0.2,0.2 -0.5,0.4 -0.7,0.4 c0,-0.4 0,-0.8 0.1,-1.2 c-0.2,-0.2 -0.4,-0.4 -0.7,-0.5 c0,-2.1 0.1,-4.2 0.2,-6.3 c0.6,-2.5 1.1,-4.9 1.7,-7.4 c-1.2,0.7 -2.1,1.6 -2.9,2.6 c-1.4,0.8 -2.6,1.9 -3.5,3.3 c-0.3,0.1 -0.6,0.3 -0.9,0.4 c-4.7,4.9 -10,10.1 -15.9,15.7 c-1.4,1.5 -2.8,2.9 -4.4,4.3 c-0.8,0.8 -1.7,1.5 -2.5,2.2 c0,0.2 0,0.4 -0.1,0.5 c-0.3,0.2 -0.6,0.2 -0.9,0.2 c-2.9,2.5 -7.5,5.2 -9.1,3.3 c0.2,-0.3 0.4,-0.6 0.6,-0.9 c-0.2,0.2 -0.5,0.4 -0.7,0.6 c0,-0.1 0.1,-0.2 0,-0.3 c0,-0.6 0.3,-1 0.9,-1.2 c-0.2,-1.3 -0.8,-1.7 -2,-1.2 c-0.4,-0.5 -0.8,-0.8 -1.3,-1 c0.1,-0.7 0.1,-1.4 0,-2 c-0.1,0.3 -0.2,0.7 -0.3,1 c-0.1,-1 -0.3,-1.9 -0.5,-2.7 c-0.2,-1.5 0.1,-3.2 0.9,-5 c-0.1,-0.3 -0.2,-0.5 -0.3,-0.8 c0.3,-0.9 0.7,-1.7 1.1,-2.5 c0.2,-0.9 -0.1,-1.6 0.4,-2.5 c1.3,-3.6 2.7,-7 4.2,-10.2 c0.1,-0.6 0.3,-1.2 0.6,-1.7 c1.5,-3.7 3.1,-7.2 4.8,-10.4 c0.2,-0.5 0.2,-1 0.2,-1.6 c2.7,-2.9 2.3,-7.8 3.7,-11.2 c1,-2.6 2,-5.2 3,-7.8 c-0.3,-0.1 -0.4,-0.2 -0.5,-0.5 c1,-0.7 1.5,-1.8 1.6,-3 c0.9,-2 1.8,-3.9 2.9,-5.8 c-0.2,-0.2 -0.2,-0.5 -0.2,-0.7 c0.5,-0.8 0.9,-1.7 1.2,-2.6 c0,-0.2 -0.1,-0.3 -0.3,-0.4 c0,-0.2 0.3,-0.3 0.8,-0.2 c0.3,-0.6 0.5,-1.3 0.6,-1.9 c0.9,0 1.9,-0.1 2.8,-0.3 c-0.2,0.5 -0.6,0.9 -1.2,1 c0.3,0.2 0.5,0.4 0.8,0.7 c0.4,-0.4 0.9,-0.5 1.4,-0.4 c-0.2,0.2 -0.5,0.4 -0.8,0.6 c0.1,0.2 0,0.4 -0.1,0.6 c0.3,0 0.6,-0.1 0.9,-0.3 c0.4,0.4 0.9,0.6 1.4,0.6 c0,0.3 0.1,0.7 0.1,1 c0.4,0.1 0.8,0 1.2,-0.2 c0.4,0.1 0.7,0.3 1,0.6 c-0.6,1 0,0 0.7,0.5 c0.1,0.2 0.2,0.5 0.2,0.7 c0.2,-0.1 0.3,-0.2 0.5,-0.4 c0.3,0.3 0.7,0.5 1.1,0.6 C264.799988,21.700001 264.700012,22 264.400024,22.200001 C264.599976,22.299999 264.599976,22.099998 264.400024,22.200001  z M234.599976,90.5 c-0.1,-0.1 -0.2,-0.1 -0.4,0 l-0.1,0.3 C234.200012,90.900002 234.299988,90.800003 234.599976,90.5 C234.5,90.300003 234.299988,90.800003 234.599976,90.5  z M235.099976,91.800003 c-0.2,-0.6 -0.6,-0.6 -1.3,0.2 C234.200012,92.099998 234.599976,92 235.099976,91.800003 C235.299988,91.300003 234.799988,91.800003 235.099976,91.800003  z M261.799988,68.400002 c0.6,-0.1 0.7,-0.4 0.5,-0.8 C261.900024,67.699997 261.700012,68 261.799988,68.400002 C262.099976,68.400002 261.700012,68 261.799988,68.400002  z M277.599976,32.599998 c-0.2,0.3 -0.4,0.7 -0.4,1.2 C277.5,33.400002 277.599976,33 277.599976,32.599998 C277.599976,32.799999 277.700012,32.700001 277.599976,32.599998  z M284.400024,80.599998 c-0.1,0 -0.1,-0.1 -0.1,-0.2 l-0.6,-0.1 l0,0.3 C283.900024,80.800003 284.200012,80.800003 284.400024,80.599998 C284.299988,80.599998 284.200012,80.699997 284.400024,80.599998  z M293.200012,35.200001 c0,-0.2 -0.1,-0.4 -0.2,-0.6 C292.900024,35.099998 293,35.299999 293.200012,35.200001 C293.200012,35.099998 293,35.299999 293.200012,35.200001  z M289.400024,79.699997 c-0.3,0 -0.5,0.2 -0.5,0.5 C289.099976,80.099998 289.299988,79.900002 289.400024,79.699997 C289.200012,79.599998 289.400024,79.900002 289.400024,79.699997  z M313.900024,50 c-0.5,0.2 -0.8,0.5 -0.9,0.9 C313.299988,50.699997 313.599976,50.400002 313.900024,50 C313.599976,50.099998 313.700012,50.099998 313.900024,50  z M321.799988,18.299999 c-0.3,0.2 -0.5,0.4 -0.7,0.7 C321.599976,19.099998 321.799988,18.799999 321.799988,18.299999 C321.700012,18.5 321.900024,18.5 321.799988,18.299999  z M326.299988,13.1 c-0.8,0.3 -1.5,0.9 -1.9,1.7 C325,14.299999 325.700012,13.700001 326.299988,13.1 C325.900024,13.299999 326,13.5 326.299988,13.1  z M344.299988,3.1 c-0.2,0 -0.3,0.1 -0.6,0.4 C344.099976,3.6 344.299988,3.5 344.299988,3.1 C344.200012,3 344.200012,3.200001 344.299988,3.1  z "></path></g><g><path fill="#F72C25" d="M20.100006,-260.299988 l8,15.6 h-8.4 l-6.9,-14.2 h-1.1 v14.2 H4 v-53.5 h11.2 c6.9,0 10.3,3.8 10.3,11.3 v16.8 C25.5,-265.5 23.700012,-262.200012 20.100006,-260.299988  z M11.700012,-290.600006 v24.4 h1.8 c1.1,0 1.8,-0.1 2.2,-0.2 c1.4,-0.6 2.1,-1.7 2.1,-3.4 V-287 c0,-2.4 -1.1,-3.7 -3.4,-3.7 H11.700012  z "></path><path fill="#F72C25" d="M32.5,-298.200012 h20 v7.6 h-12.3 v24.1 h10.6 v7.6 h-10.6 v6.6 h12.3 v7.6 h-20 V-298.200012  z "></path><path fill="#F72C25" d="M78.200012,-298.200012 v7.6 h-7.2 v45.9 h-7.7 v-45.9 H56 v-7.6 H78.200012  z "></path><path fill="#F72C25" d="M99.200012,-260.299988 l8,15.6 h-8.4 l-6.9,-14.2 h-1.1 v14.2 h-7.7 v-53.5 h11.2 c6.9,0 10.3,3.8 10.3,11.3 v16.8 C104.599976,-265.5 102.799988,-262.200012 99.200012,-260.299988  z M90.799988,-290.600006 v24.3 h1.8 c1.1,0 1.8,-0.1 2.2,-0.2 c1.4,-0.6 2.1,-1.7 2.1,-3.4 V-287 c0,-2.4 -1.1,-3.7 -3.4,-3.7 H90.799988  z "></path><path fill="#F72C25" d="M131.900024,-255.100006 c0,7.5 -3.7,11.2 -11.1,11.3 c-7.4,0 -11.1,-3.8 -11.1,-11.3 v-32.7 c0,-7.5 3.7,-11.2 11.1,-11.2 c7.4,0 11.1,3.7 11.1,11.2 V-255.100006  z M124.099976,-287.799988 c0,-2.4 -1.1,-3.6 -3.4,-3.6 h-0.1 c-2.2,0 -3.3,1.2 -3.3,3.6 v32.7 c0,2.4 1.1,3.6 3.4,3.6 c2.3,0 3.4,-1.2 3.4,-3.6 V-287.799988  z "></path></g><g><path fill="#F7B32B" d="M136.900024,-306.700012 c1.5,0.4 1.3,-2.1 2.4,-2.6 c0.1,0 0.2,0 0.3,-0.1 c1.3,-1.4 2.5,-2.9 3.8,-4.4 c0.6,-0.9 1.2,-1.6 2,-2.2 c0.9,-1 1.8,-1.8 2.8,-2.6 c3.1,-1.8 6.2,-3.5 9.4,-5.3 c1.4,-0.5 2.8,-1 4.2,-1.5 c0.5,-0.3 1.1,-0.6 1.7,-0.9 c2,-0.5 4.1,-1.1 6.3,-1.6 c0.6,-0.3 1.3,-0.5 2,-0.7 c0.7,0.1 1.3,-0.1 1.8,-0.6 c7.7,0.8 15.4,-0.5 23.1,0.3 c3.9,0.9 7.6,2.5 11.1,4.7 c1.2,1.6 2.5,3.2 3.7,4.7 c-0.1,0.4 1.1,2.6 0.5,2.5 c0.2,0.6 0.4,1.2 0.5,1.7 c-0.8,-0.5 -1.3,-1.3 -1.4,-2.4 c0.2,1.4 0.5,2.8 0.8,4.2 c0.2,0 0.3,-0.1 0.4,-0.3 c0.4,3.2 0.1,6 -1,8.7 c-0.2,0.4 -0.3,0.8 -0.5,1.2 c-0.7,1.7 -1.6,3.4 -2.6,5 c-0.3,0.2 -0.3,0.6 -0.2,1 c-0.3,-0.2 -0.6,-0.1 -0.8,0.2 c-0.1,0.2 -0.2,0.4 -0.2,0.6 c-3.9,3.1 -7.6,8.5 -12.9,9.9 c-1.3,0.6 -2.5,1.5 -3.6,2.5 c-0.2,-0.1 -0.3,-0.2 -0.4,-0.4 c-7.4,3.8 -14.8,4.7 -21.1,6.6 c0,0.5 0,0.9 0,1.4 c-0.5,0.6 -1,1.3 -1.3,2.1 c0,0.3 0,0.6 0.1,0.9 c-0.5,1.2 -1,2.4 -1.6,3.6 c0,0.4 0,0.7 -0.1,1 c-0.3,0.5 -0.6,1.1 -0.9,1.7 c-0.1,0.4 -0.2,0.7 -0.2,1.1 c-0.3,1.1 -0.6,2.2 -0.7,3.4 c-0.5,1 -0.9,2.2 -1.1,3.5 c-0.7,3.8 -2.2,6.9 -4.4,9.4 c-0.2,-0.3 -0.3,-0.6 -0.3,-1 c-0.2,1 -1.9,3.7 -3,3 c-0.2,0.3 -0.3,0.7 -0.3,1.1 c0.1,0 1.1,-0.4 1.1,-0.6 c-0.6,0.2 -1.1,0.4 -1.6,0.7 c-0.6,-0.4 -1,-0.3 -1.4,0.1 c-0.6,-0.6 -1.3,-0.8 -1.9,-0.7 c-0.2,-0.3 -0.3,-0.6 -0.4,-1 c-0.3,0 -0.6,-0.1 -0.9,-0.3 c-0.1,0.3 -0.2,0.6 -0.4,0.8 c-0.1,-0.3 -0.3,-0.5 -0.6,-0.6 c0.1,-0.3 0,-0.7 -0.1,-1.2 c-0.4,-0.9 -1,-1.5 -1.8,-1.9 c0.1,-0.5 0.1,-1 0,-1.5 c0.8,-1.6 1.2,-3.4 1.2,-5.5 l0.3,0 c0.5,-3.5 1.1,-7 1.7,-10.6 c0.2,-0.2 0.3,-0.3 0.3,-0.6 c0.7,-3.8 1.4,-7.6 2,-11.6 c1.2,-4.4 2.4,-8.8 3.6,-13.4 c-0.1,-0.4 -0.1,-0.7 -0.1,-1.1 c0.4,-0.5 0.6,-1.1 0.5,-1.9 c1.2,-2.8 2.1,-5.9 2.9,-9.1 c-5.6,1.1 -10.4,2.4 -14.9,5.6 c-1.4,1.7 -2.6,3.5 -3.6,5.5 c-0.5,0.2 -0.9,0.6 -1.1,1.1 c-0.3,0.1 -0.6,-0.1 -0.8,-0.5 c-0.9,-0.5 -1.7,-1.1 -2.5,-1.8 c-0.5,-1 -1.1,-1.9 -1.8,-2.9 c0.3,-2.3 1.1,-4.2 2.4,-5.8 C137,-306.200012 136.900024,-306.399994 136.900024,-306.700012 C137.299988,-306.600006 136.900024,-306.399994 136.900024,-306.700012  z M176.599976,-298.700012 c5,-2.4 8.6,-6.8 13.4,-9.6 c0.1,-0.8 0.4,-1.5 1,-2.1 c0.6,-0.2 1.2,-0.3 1.8,-0.4 c-0.2,-1.5 -0.6,-3.1 -1.2,-4.9 c-1.4,0.5 -2.8,0.4 -4.3,-0.2 c-0.9,2.6 -5.5,0.6 -7.6,1.4 c-1.5,2.6 -1.7,5.5 -3.1,8.2 c0.1,0.3 0.3,0.7 0.4,1 c-1.7,2.3 -2.8,4.9 -3.3,7.7 C175.200012,-297.100006 176.099976,-297.399994 176.599976,-298.700012 C177.900024,-299.399994 176.5,-298.200012 176.599976,-298.700012  z M210.700012,-317.700012 c0.1,-0.4 -0.1,-0.8 -0.4,-1.2 c0,0.2 0,0.2 -0.2,0.1 C210.200012,-318.200012 210.400024,-317.899994 210.700012,-317.700012 C210.799988,-317.700012 210.400024,-317.899994 210.700012,-317.700012  z "></path><path fill="#F7B32B" d="M260.900024,-260.5 c-0.3,-0.1 -0.6,-0.3 -0.8,-0.4 c-1.5,0.9 -3.3,1.7 -5.3,2.5 c0,0.3 -0.1,0.5 -0.3,0.7 c-5.6,1.2 -11.2,2.7 -16.7,4.6 c-4.5,1.7 -9.9,2 -14.5,3.6 c-0.2,0.1 -0.5,0.3 -0.7,0.4 c-0.5,0 -1,0.1 -1.5,0.1 c-0.7,0.3 -1.4,0.5 -2.1,0.6 c-0.2,0.1 -0.4,0.4 -0.7,0.9 c-1.1,0.1 -2.1,0.4 -2.9,0.9 c-3.2,0.7 -6.5,1.2 -9.7,1.6 c-1.3,-0.1 -2.6,-0.4 -3.8,-0.8 c-2.9,0 -4.7,-1.7 -7.1,-2.3 c-0.5,-0.7 -0.8,-1.5 -0.9,-2.4 c-0.1,-0.6 -0.4,-0.8 -0.9,-0.6 c-0.8,-1.6 -1.4,-3.2 -1.9,-5 c0.1,-0.4 0.3,-0.7 0.6,-1 c-0.3,-0.7 -0.3,-1.4 -0.3,-2.2 c-0.7,-2.2 -0.4,-4.7 0.9,-7.3 c0.4,-1.2 1,-2.3 1.8,-3.2 c2.4,-4.4 5,-8.7 7.5,-12.7 c-0.9,-0.7 0.5,-1.5 0.3,-2.3 c0.4,0 0.8,-0.1 1.2,-0.4 c0.3,-0.6 0.6,-1.1 0.9,-1.7 c1,-2 2,-4 2.9,-6 c0.7,-1.8 1.5,-3.5 2.2,-5.3 c0.5,-0.9 0.7,-1.9 0.6,-3 c-0.3,-0.1 -0.6,-0.3 -0.8,-0.6 c-0.1,0.2 -0.3,0.5 -0.3,0.8 c-0.7,-0.5 -1.4,-0.9 -2.1,-1.2 c-0.1,-0.5 -0.1,-1.2 0,-2 c0.9,-1 1.6,-2.1 2.2,-3.3 c4.6,-2.5 9,-4.7 13.2,-7.2 c1.6,0.4 2.9,-1.6 4.3,-1.6 c0.2,-0.1 0.3,-0.2 0.3,-0.5 c0.1,0.2 0.3,0.3 0.5,0.4 c2.8,-1.2 5.5,-2.3 8.2,-3.4 c0.2,0 0.4,0.1 0.6,0.3 c1.3,-0.5 2.6,-1 3.9,-1.7 c1.1,0 2.3,-0.1 3.5,-0.3 c0.3,-0.2 0.5,-0.4 0.6,-0.9 c4.7,-0.7 10.8,-0.3 17.1,-0.8 c0.4,-0.1 0.9,-0.2 1.3,-0.3 c1.9,0.5 3.9,0.9 5.9,1.2 c-0.2,0.5 -0.3,0.9 -0.3,1.3 c-0.5,0.2 -1,0.1 -1.4,-0.1 c-0.3,0.5 -0.7,0.9 -1.1,1.2 c0.2,0.2 0.3,0.5 0.3,0.7 c0.5,-0.4 1,-0.4 1.4,-0.1 c-0.6,0.5 -1.2,0.9 -1.8,1.4 c-0.2,0 -0.3,-0.2 -0.1,-0.6 c-0.5,0.5 -1,0.7 -1.5,0.6 l-0.3,1 c0.2,0.2 0.4,0.3 0.6,0.4 c-0.7,0.8 -1.4,1.1 -2.2,0.9 c-0.2,0.3 -0.4,0.6 -0.6,1 c-0.9,0.1 -1.8,0.1 -2.6,-0.1 c0.1,0.4 0.1,0.7 -0.2,1.1 c-0.2,-0.4 -0.3,-0.6 -0.4,-0.6 c-1.2,1.3 -2.5,2.1 -3.8,2.4 c-0.4,0 -0.8,0.1 -1.3,0.1 c-1.1,0.6 -2.1,1.1 -3.1,1.5 c-1.8,0.4 -3.4,1.2 -4.8,2.5 c-3.4,1.8 -6.8,3.4 -10.5,4.8 c-0.8,0.2 -1.6,0.5 -2.4,1.1 c-0.6,1.2 -0.7,2.6 -0.5,4.2 c-0.2,0.1 -0.3,0.1 -0.5,0.2 c-0.5,2.5 -1.2,4.8 -2.1,7.1 c1.5,0.4 2.9,0.3 4.2,-0.3 c0.3,0.1 0.6,0.2 0.9,0.3 c4.1,-1.2 8,-1.5 11.5,-2.4 c0.4,0.1 0.7,0.1 1.1,0.2 c1,0.1 3.7,0.3 4.1,-1.2 c1.6,0.1 3.2,0.1 4.8,0.3 c0,0.4 -0.1,0.6 -0.4,0.5 c0.3,0.6 0.7,0.8 1,0.7 c0,0.4 0,0.8 0,1.1 c-0.2,0 -0.4,-0.1 -0.6,-0.2 c0.2,0.7 0.4,1.4 0.6,2 c-0.5,-0.2 -0.9,-0.2 -1.2,0.3 c0,0.3 0.1,0.6 0.1,1 c-0.5,0 -0.7,0.4 -0.6,1.3 c-0.6,0.2 -0.9,0.8 -1.1,1.8 c-1,0.5 -2,1.1 -3,1.7 c-0.1,0.3 -0.2,0.5 -0.3,0.9 c-0.5,-0.4 -0.8,-0.3 -0.8,0.3 c-0.4,-0.3 -0.6,-0.2 -0.7,0.4 c-0.2,-0.1 -0.4,-0.1 -0.6,-0.2 c-0.5,1 -1.4,1.3 -2.6,1 c-0.4,1.4 -2.4,-0.3 -2.9,1.2 c-1,0.1 -2.1,0.2 -3.2,0.3 c-2.5,0.6 -5.1,1.1 -7.8,1.6 c-0.8,-0.2 -1.5,0 -2,0.5 c-2.1,-0.2 -4.1,0 -6.2,0.4 c-2.5,4 -5.2,8.1 -8.1,12.4 c2.3,-0.4 4.5,-1 6.7,-1.8 c1.2,0 2.3,-0.4 3.2,-1.2 c0.2,0 0.3,0.1 0.4,0.2 c2.3,-0.8 4.6,-1.4 7,-1.7 c0.6,-0.3 1.3,-0.6 2,-0.8 c0.3,0.1 0.6,0.1 0.9,0.2 c1.2,-0.2 2.2,-0.7 3.5,-0.6 c0.5,-0.1 8.6,-1.9 9.1,-0.4 c2.7,0.3 6.4,0.2 9.8,2.4 c0.3,0.4 0.4,0.6 0.1,0.7 c1,1 2.1,1.8 3.3,2.5 c0.1,0.3 0.4,0.7 0.6,1 c0.4,0.1 0.8,0.3 1.2,0.5 C261.900024,-262.299988 261.5,-261.299988 260.900024,-260.5 C260.599976,-260.5 260.900024,-261.200012 260.900024,-260.5  z M231.900024,-302.600006 c-0.3,-0.2 -0.4,-0.1 -0.4,0.4 C231.700012,-302.200012 231.799988,-302.299988 231.900024,-302.600006  z "></path><path fill="#F7B32B" d="M288.400024,-321.799988 c0.3,-0.3 0.5,-0.3 0.9,-0.1 c0.1,-0.2 0.3,-0.4 0.4,-0.6 c0.3,-0.1 0.5,0 0.6,0.3 c0.6,0.1 0.1,-0.5 0.8,0.3 c0.1,-0.4 0.3,-0.6 0.6,-0.6 c0.1,0.2 0.2,0.4 0.1,0.7 c1.5,1.4 1.6,3 0.5,4.6 c0.1,0.2 0.2,0.4 0.2,0.7 c-0.3,2.7 -1.3,5.1 -2.8,7.3 c0.1,0.2 0.1,0.4 0,0.7 c-0.3,0.7 -0.5,1.4 -0.6,2.1 c-0.5,0.9 -1,1.8 -1.3,2.7 c-0.5,0.9 -1,1.8 -1.4,2.8 c-0.1,0.2 -0.1,0.5 -0.1,0.7 c-0.8,1.4 -1.4,2.9 -1.7,4.5 c4.5,-3.4 8.6,-7.1 12.5,-11.1 c0.1,0 0.2,0.1 0.3,0.1 c1.3,-2 2.9,-3.9 4.4,-5.7 c0.9,-0.6 1.8,-1.2 2.8,-1.7 c2.4,0.6 4.8,1.1 7.3,1.5 c0.3,-0.1 0.5,-0.3 0.7,-0.5 c0.1,0 0.1,0.3 0.2,0.8 c0.6,0.2 1.2,0.4 1.9,0.5 c0,0.2 0,0.4 0,0.6 c1.1,-0.1 1.5,1 2.5,1.1 c0.1,0.6 0.5,1.1 1,1.3 c0.5,1 0.9,2.2 1,3.3 c0,0.2 0,0.3 -0.3,0.3 c-0.1,1.4 0,2.7 0.3,4.1 c-0.2,0 -0.5,-0.1 -0.7,-0.1 c-0.5,1.4 -0.7,2.9 -0.8,4.4 c1.5,-1.6 3,-3.3 4.3,-5 c-0.1,-0.2 -0.2,-0.4 -0.4,-0.5 c0.2,-0.6 0.5,-0.7 0.9,-0.4 c1.5,-1.6 2.9,-3.2 4.3,-4.9 c0.6,-0.3 1,-0.7 1.1,-1.4 c0.9,-0.3 1.5,-0.9 1.9,-2 c4.4,-4.4 9,-8.8 13.6,-13.3 c-0.1,0 -0.1,-0.2 0,-0.5 c3.8,-3.6 7.8,-7.1 12,-10.5 c0.2,0 0.3,0 0.5,0.1 c1.5,-1.4 3.1,-2.7 4.9,-3.8 c-0.8,1.1 -1.6,2.1 -2.5,3.1 c1,-0.3 1.7,-0.9 2.2,-1.8 c0.8,-0.4 1.5,-0.8 2.3,-1.1 c1.7,-1.3 3.5,-2.5 5.3,-3.7 c0.1,0 0.1,-0.1 0.2,-0.2 c1,-0.7 2.2,-1.2 3.3,-1.6 c0.1,1.3 -0.4,2.3 -1.6,3.1 c0.2,0.3 0.3,0.6 0.5,0.9 c-1.5,0.1 -2.1,1 -1.9,2.5 c-0.3,0.7 -0.7,1.1 -1.2,1.2 c1.1,0.1 2,0.4 2.9,1.1 c0.4,-0.1 0.9,-0.2 1.4,-0.3 c0.1,0.2 0.2,0.5 0.3,0.6 c-0.5,0.6 -1.1,1.2 -1.6,1.8 c-0.8,2 -1.8,3.9 -2.9,5.8 c-0.3,0.2 -0.6,0.4 -0.9,0.6 c-1,1.6 -2.2,3.1 -3.6,4.4 c-1,2.2 -3.4,3.6 -4.1,5.8 c-1.1,1 -2.2,2.1 -3.2,3.3 c0.2,0.1 0.3,0.3 0.2,0.5 c-0.5,0.3 -1,0.6 -1.4,1 c-1,2.4 -4.1,4.5 -5.5,6.8 c-0.7,0.1 -1.2,0.6 -1.5,1.4 c-0.2,0 -0.5,0.2 -0.7,0.3 c-6.1,8.1 -13.4,15 -18.7,23.1 c-1.9,2.1 -3.6,4.3 -5.3,6.5 c0.5,1.2 0,0.6 -0.5,0.6 c-1.2,2 -2.7,3.8 -4.5,5.5 c-1.3,2.7 -3.4,4.6 -6.1,5.9 c-2,0.4 -3.9,0.1 -5.4,-1.2 c-0.7,-0.1 -1.4,-0.1 -2.1,0 c-1.2,-1 -2.5,-1.9 -3.9,-2.7 c-1.8,-0.2 -2.9,-1.1 -3.3,-2.6 c-0.2,0.2 -0.5,0.4 -0.7,0.4 c0,-0.4 0,-0.8 0.1,-1.2 c-0.2,-0.2 -0.4,-0.4 -0.7,-0.5 c0,-2.1 0.1,-4.2 0.2,-6.3 c0.6,-2.5 1.1,-4.9 1.7,-7.4 c-1.2,0.7 -2.1,1.6 -2.9,2.6 c-1.4,0.8 -2.6,1.9 -3.5,3.3 c-0.3,0.1 -0.6,0.3 -0.9,0.4 c-4.7,4.9 -10,10.1 -15.9,15.7 c-1.4,1.5 -2.8,2.9 -4.4,4.3 c-0.8,0.8 -1.7,1.5 -2.5,2.2 c0,0.2 0,0.4 -0.1,0.5 c-0.3,0.2 -0.6,0.2 -0.9,0.2 c-2.9,2.5 -7.5,5.2 -9.1,3.3 c0.2,-0.3 0.4,-0.6 0.6,-0.9 c-0.2,0.2 -0.5,0.4 -0.7,0.6 c0,-0.1 0.1,-0.2 0,-0.3 c0,-0.6 0.3,-1 0.9,-1.2 c-0.2,-1.3 -0.8,-1.7 -2,-1.2 c-0.4,-0.5 -0.8,-0.8 -1.3,-1 c0.1,-0.7 0.1,-1.4 0,-2 c-0.1,0.3 -0.2,0.7 -0.3,1 c-0.1,-1 -0.3,-1.9 -0.5,-2.7 c-0.2,-1.5 0.1,-3.2 0.9,-5 c-0.1,-0.3 -0.2,-0.5 -0.3,-0.8 c0.3,-0.9 0.7,-1.7 1.1,-2.5 c0.2,-0.9 -0.1,-1.6 0.4,-2.5 c1.3,-3.6 2.7,-7 4.2,-10.2 c0.1,-0.6 0.3,-1.2 0.6,-1.7 c1.5,-3.7 3.1,-7.2 4.8,-10.4 c0.2,-0.5 0.2,-1 0.2,-1.6 c2.7,-2.9 2.3,-7.8 3.7,-11.2 c1,-2.6 2,-5.2 3,-7.8 c-0.3,-0.1 -0.4,-0.2 -0.5,-0.5 c1,-0.7 1.5,-1.8 1.6,-3 c0.9,-2 1.8,-3.9 2.9,-5.8 c-0.2,-0.2 -0.2,-0.5 -0.2,-0.7 c0.5,-0.8 0.9,-1.7 1.2,-2.6 c0,-0.2 -0.1,-0.3 -0.3,-0.4 c0,-0.2 0.3,-0.3 0.8,-0.2 c0.3,-0.6 0.5,-1.3 0.6,-1.9 c0.9,0 1.9,-0.1 2.8,-0.3 c-0.2,0.5 -0.6,0.9 -1.2,1 c0.3,0.2 0.5,0.4 0.8,0.7 c0.4,-0.4 0.9,-0.5 1.4,-0.4 c-0.2,0.2 -0.5,0.4 -0.8,0.6 c0.1,0.2 0,0.4 -0.1,0.6 c0.3,0 0.6,-0.1 0.9,-0.3 c0.4,0.4 0.9,0.6 1.4,0.6 c0,0.3 0.1,0.7 0.1,1 c0.4,0.1 0.8,0 1.2,-0.2 c0.4,0.1 0.7,0.3 1,0.6 c-0.6,1 0,0 0.7,0.5 c0.1,0.2 0.2,0.5 0.2,0.7 c0.2,-0.1 0.3,-0.2 0.5,-0.4 c0.3,0.3 0.7,0.5 1.1,0.6 C288.799988,-322.299988 288.700012,-322 288.400024,-321.799988 C288.599976,-321.700012 288.599976,-321.899994 288.400024,-321.799988  z M258.599976,-253.5 c-0.1,-0.1 -0.2,-0.1 -0.4,0 l-0.1,0.3 C258.200012,-253.100006 258.299988,-253.200012 258.599976,-253.5 C258.5,-253.700012 258.299988,-253.200012 258.599976,-253.5  z M259.099976,-252.200012 c-0.2,-0.6 -0.6,-0.6 -1.3,0.2 C258.200012,-251.899994 258.599976,-252 259.099976,-252.200012 C259.299988,-252.700012 258.799988,-252.200012 259.099976,-252.200012  z M285.799988,-275.600006 c0.6,-0.1 0.7,-0.4 0.5,-0.8 C285.900024,-276.299988 285.700012,-276 285.799988,-275.600006 C286.099976,-275.600006 285.700012,-276 285.799988,-275.600006  z M301.599976,-311.399994 c-0.2,0.3 -0.4,0.7 -0.4,1.2 C301.5,-310.600006 301.599976,-311 301.599976,-311.399994 C301.599976,-311.200012 301.700012,-311.299988 301.599976,-311.399994  z M308.400024,-263.399994 c-0.1,0 -0.1,-0.1 -0.1,-0.2 l-0.6,-0.1 l0,0.3 C307.900024,-263.200012 308.200012,-263.200012 308.400024,-263.399994 C308.299988,-263.399994 308.200012,-263.299988 308.400024,-263.399994  z M317.200012,-308.799988 c0,-0.2 -0.1,-0.4 -0.2,-0.6 C316.900024,-308.899994 317,-308.700012 317.200012,-308.799988 C317.200012,-308.899994 317,-308.700012 317.200012,-308.799988  z M313.400024,-264.299988 c-0.3,0 -0.5,0.2 -0.5,0.5 C313.099976,-263.899994 313.299988,-264.100006 313.400024,-264.299988 C313.200012,-264.399994 313.400024,-264.100006 313.400024,-264.299988  z M337.900024,-294 c-0.5,0.2 -0.8,0.5 -0.9,0.9 C337.299988,-293.299988 337.599976,-293.600006 337.900024,-294 C337.599976,-293.899994 337.700012,-293.899994 337.900024,-294  z M345.799988,-325.700012 c-0.3,0.2 -0.5,0.4 -0.7,0.7 C345.599976,-324.899994 345.799988,-325.200012 345.799988,-325.700012 C345.700012,-325.5 345.900024,-325.5 345.799988,-325.700012  z M350.299988,-330.899994 c-0.8,0.3 -1.5,0.9 -1.9,1.7 C349,-329.700012 349.700012,-330.299988 350.299988,-330.899994 C349.900024,-330.700012 350,-330.5 350.299988,-330.899994  z M368.299988,-340.899994 c-0.2,0 -0.3,0.1 -0.6,0.4 C368.099976,-340.399994 368.299988,-340.5 368.299988,-340.899994 C368.200012,-341 368.200012,-340.799988 368.299988,-340.899994  z "></path></g><polygon fill="#FCF6B1" points="756,-229 1012,-229 1028,-245 772,-245 "></polygon><polygon fill="#F72C25" points="692,-229 756,-229 772,-245 708,-245 "></polygon><polygon fill="#A9E5BB" points="628,-229 692,-229 708,-245 644,-245 "></polygon></svg>